<svg width="15" height="12" viewBox="0 0 15 12" fill="none" xmlns="http://www.w3.org/2000/svg">
<path d="M1.1734 10.9991L12.5659 4.42163L11.1167 9.83021C11.0893 9.92569 11.0812 10.0257 11.0929 10.1243C11.1046 10.2229 11.1358 10.3183 11.1847 10.4047C11.2336 10.4912 11.2993 10.567 11.3778 10.6278C11.4564 10.6886 11.5462 10.7332 11.6422 10.7589C11.7381 10.7846 11.8382 10.7909 11.9366 10.7775C12.035 10.7642 12.1298 10.7313 12.2154 10.6809C12.301 10.6305 12.3757 10.5635 12.4351 10.4839C12.4945 10.4044 12.5375 10.3137 12.5616 10.2174L14.4782 3.06451C14.5295 2.87291 14.5026 2.66878 14.4034 2.497C14.3042 2.32522 14.1409 2.19987 13.9493 2.1485L6.79646 0.231898C6.60615 0.184434 6.40481 0.213615 6.23581 0.313157C6.0668 0.412699 5.94366 0.574638 5.89289 0.764095C5.84213 0.953551 5.86781 1.15537 5.9644 1.32608C6.06099 1.49678 6.22076 1.62273 6.40931 1.67677L11.8179 3.126L0.425362 9.70347C0.253549 9.80267 0.12818 9.96605 0.0768325 10.1577C0.0254851 10.3493 0.052365 10.5535 0.151561 10.7253C0.250756 10.8971 0.414142 11.0225 0.605773 11.0738C0.797404 11.1252 1.00158 11.0983 1.1734 10.9991Z" fill="white"/>
</svg>
