<svg width="19" height="19" viewBox="0 0 19 19" fill="none" xmlns="http://www.w3.org/2000/svg">
<g clip-path="url(#clip0_238_138)">
<path d="M14.2765 13.0222L10.5052 9.25092L14.2765 5.47968C14.3765 5.37966 14.4327 5.24401 14.4327 5.10256C14.4327 4.96111 14.3765 4.82545 14.2765 4.72543V4.72543C14.1764 4.62542 14.0408 4.56923 13.8993 4.56923C13.7579 4.56923 13.6222 4.62542 13.5222 4.72543L9.75098 8.49667L5.97974 4.72543C5.87972 4.62542 5.74407 4.56923 5.60262 4.56923C5.46117 4.56923 5.32551 4.62542 5.22549 4.72543V4.72543C5.12547 4.82545 5.06928 4.96111 5.06928 5.10256C5.06928 5.24401 5.12547 5.37966 5.22549 5.47968L8.99673 9.25092L5.22549 13.0222C5.12547 13.1222 5.06928 13.2578 5.06928 13.3993C5.06928 13.5407 5.12547 13.6764 5.22549 13.7764C5.32551 13.8764 5.46117 13.9326 5.60262 13.9326C5.74407 13.9326 5.87972 13.8764 5.97974 13.7764L9.75098 10.0052L13.5222 13.7764C13.6222 13.8764 13.7579 13.9326 13.8993 13.9326C14.0408 13.9326 14.1764 13.8764 14.2765 13.7764C14.3765 13.6764 14.4327 13.5407 14.4327 13.3993C14.4327 13.2578 14.3765 13.1222 14.2765 13.0222Z" fill="black"/>
</g>
<defs>
<clipPath id="clip0_238_138">
<rect width="12.8" height="12.8" fill="white" transform="translate(9.75098 0.199951) rotate(45)"/>
</clipPath>
</defs>
</svg>
