<svg width="87" height="76" viewBox="0 0 87 76" fill="none" xmlns="http://www.w3.org/2000/svg">
<path d="M68.5068 47.0038C68.5068 57.1227 54.4007 65.3257 37 65.3257C19.5992 65.3257 5.49316 57.1227 5.49316 47.0038C5.49316 36.8849 19.5992 28.6819 37 28.6819C54.4007 28.6819 68.5068 36.8849 68.5068 47.0038Z" fill="white"/>
<path d="M68.5068 47.0038C68.5068 57.1227 54.4007 65.3257 37 65.3257C19.5992 65.3257 5.49316 57.1227 5.49316 47.0038V57.2778C5.49316 67.3967 19.5992 75.5997 37 75.5997C54.4007 75.5997 68.5068 67.3967 68.5068 57.2778V47.0038Z" fill="#1A1A1A"/>
<path d="M68.5068 47.0038C68.5068 57.1227 54.4007 65.3257 37 65.3257C19.5992 65.3257 5.49316 57.1227 5.49316 47.0038C5.49316 36.8849 19.5992 28.6819 37 28.6819C54.4007 28.6819 68.5068 36.8849 68.5068 47.0038Z" fill="white"/>
<path d="M68.1068 47.0038C68.1068 51.8613 64.718 56.3336 59.0776 59.6136C53.4472 62.8878 45.6425 64.9257 37 64.9257C28.3575 64.9257 20.5528 62.8878 14.9224 59.6136C9.28195 56.3336 5.89316 51.8613 5.89316 47.0038C5.89316 42.1463 9.28195 37.6741 14.9224 34.3941C20.5528 31.1199 28.3575 29.0819 37 29.0819C45.6425 29.0819 53.4472 31.1199 59.0776 34.3941C64.718 37.6741 68.1068 42.1463 68.1068 47.0038ZM5.89316 57.2778V51.2018C7.26905 54.7448 10.3434 57.8763 14.5202 60.3052C20.293 63.6622 28.2417 65.7257 37 65.7257C45.7582 65.7257 53.7069 63.6622 59.4797 60.3052C63.6565 57.8763 66.7309 54.7448 68.1068 51.2018V57.2778C68.1068 62.1353 64.718 66.6075 59.0776 69.8875C53.4472 73.1617 45.6425 75.1997 37 75.1997C28.3575 75.1997 20.5528 73.1617 14.9224 69.8875C9.28195 66.6075 5.89316 62.1353 5.89316 57.2778Z" stroke="#1A1A1A" stroke-width="0.8"/>
<path d="M62.2852 46.8327C62.2852 50.595 59.5577 54.0835 54.9668 56.6544C50.3889 59.218 44.0376 60.8162 37.0003 60.8162C29.963 60.8162 23.6117 59.218 19.0338 56.6544C14.443 54.0835 11.7154 50.595 11.7154 46.8327C11.7154 43.0704 14.443 39.5819 19.0338 37.011C23.6117 34.4474 29.963 32.8492 37.0003 32.8492C44.0376 32.8492 50.3889 34.4474 54.9668 37.011C59.5577 39.5819 62.2852 43.0704 62.2852 46.8327Z" fill="#B4F9BA" stroke="#1A1A1A" stroke-width="0.8"/>
<path opacity="0.8" d="M26.5018 51.9459L27.6415 52.6039L29.5086 51.5259C33.3884 53.5979 37.3652 53.7099 40.1296 52.1139C44.0093 49.8739 42.0694 47.8859 39.5233 45.7439L46.313 41.8239C48.3741 43.2659 48.3984 44.8199 46.1917 46.1779L47.7436 47.0739C50.5323 45.3799 50.702 43.1819 47.5497 41.1099L49.4411 40.0179L48.3014 39.3599L46.4342 40.4379C42.8454 38.5619 39.0141 38.4499 36.2983 40.0179C33.3884 41.6979 34.3099 43.3779 37.1227 45.8139L29.6299 50.1399C26.9383 48.3619 27.2777 46.6539 29.7754 45.1279L28.2234 44.2319C25.1196 46.0799 24.6589 48.4459 28.3932 50.8539L26.5018 51.9459ZM38.0684 40.8159C39.9598 39.7239 42.6514 39.7939 45.2218 41.1379L38.6261 44.9459C36.4922 43.0139 36.0315 41.9919 38.0684 40.8159ZM38.4806 51.2739C36.2498 52.5619 33.4369 52.1979 30.7695 50.7979L38.0199 46.6119C40.4933 48.7959 40.76 49.9579 38.4806 51.2739Z" fill="black"/>
<path d="M86.9999 32.6204C86.9999 42.7393 72.8939 50.9423 55.4931 50.9423C38.0924 50.9423 23.9863 42.7393 23.9863 32.6204C23.9863 22.5015 38.0924 14.2985 55.4931 14.2985C72.8939 14.2985 86.9999 22.5015 86.9999 32.6204Z" fill="white"/>
<path d="M86.9999 32.6204C86.9999 42.7393 72.8939 50.9423 55.4931 50.9423C38.0924 50.9423 23.9863 42.7393 23.9863 32.6204V42.8944C23.9863 53.0133 38.0924 61.2163 55.4931 61.2163C72.8939 61.2163 86.9999 53.0133 86.9999 42.8944V32.6204Z" fill="#1A1A1A"/>
<path d="M86.9999 32.6204C86.9999 42.7393 72.8939 50.9423 55.4931 50.9423C38.0924 50.9423 23.9863 42.7393 23.9863 32.6204C23.9863 22.5015 38.0924 14.2985 55.4931 14.2985C72.8939 14.2985 86.9999 22.5015 86.9999 32.6204Z" fill="white"/>
<path d="M86.5999 32.6204C86.5999 37.4779 83.2112 41.9501 77.5707 45.2302C71.9403 48.5044 64.1356 50.5423 55.4931 50.5423C46.8507 50.5423 39.0459 48.5044 33.4155 45.2302C27.7751 41.9501 24.3863 37.4779 24.3863 32.6204C24.3863 27.7629 27.7751 23.2907 33.4155 20.0107C39.0459 16.7365 46.8507 14.6985 55.4931 14.6985C64.1356 14.6985 71.9403 16.7365 77.5707 20.0107C83.2112 23.2907 86.5999 27.7629 86.5999 32.6204ZM24.3863 42.8944V36.8184C25.7622 40.3613 28.8366 43.4928 33.0134 45.9217C38.7862 49.2788 46.7349 51.3423 55.4931 51.3423C64.2514 51.3423 72.2001 49.2788 77.9729 45.9217C82.1497 43.4928 85.2241 40.3613 86.5999 36.8184V42.8944C86.5999 47.7519 83.2112 52.2241 77.5707 55.5041C71.9403 58.7783 64.1356 60.8163 55.4931 60.8163C46.8507 60.8163 39.0459 58.7783 33.4155 55.5041C27.7751 52.2241 24.3863 47.7519 24.3863 42.8944Z" stroke="#1A1A1A" stroke-width="0.8"/>
<path d="M80.7784 32.4493C80.7784 36.2116 78.0508 39.7001 73.46 42.271C68.8821 44.8346 62.5308 46.4328 55.4935 46.4328C48.4562 46.4328 42.1049 44.8346 37.527 42.271C32.9362 39.7001 30.2086 36.2116 30.2086 32.4493C30.2086 28.687 32.9362 25.1984 37.527 22.6276C42.1049 20.0639 48.4562 18.4657 55.4935 18.4657C62.5308 18.4657 68.8821 20.0639 73.46 22.6276C78.0508 25.1984 80.7784 28.687 80.7784 32.4493Z" fill="#B4F9BA" stroke="#1A1A1A" stroke-width="0.8"/>
<path opacity="0.8" d="M44.9949 37.5625L46.1346 38.2205L48.0018 37.1425C51.8816 39.2145 55.8584 39.3265 58.6227 37.7305C62.5025 35.4905 60.5626 33.5025 58.0165 31.3605L64.8061 27.4405C66.8673 28.8825 66.8915 30.4365 64.6849 31.7945L66.2368 32.6905C69.0254 30.9965 69.1952 28.7985 66.0428 26.7265L67.9342 25.6345L66.7945 24.9765L64.9274 26.0545C61.3386 24.1785 57.5073 24.0665 54.7914 25.6345C51.8816 27.3145 52.803 28.9945 55.6159 31.4305L48.123 35.7565C45.4314 33.9785 45.7709 32.2705 48.2685 30.7445L46.7166 29.8485C43.6128 31.6965 43.152 34.0625 46.8863 36.4705L44.9949 37.5625ZM56.5616 26.4325C58.453 25.3405 61.1446 25.4105 63.7149 26.7545L57.1193 30.5625C54.9854 28.6305 54.5247 27.6085 56.5616 26.4325ZM56.9738 36.8905C54.7429 38.1785 51.9301 37.8145 49.2627 36.4145L56.5131 32.2285C58.9864 34.4125 59.2532 35.5745 56.9738 36.8905Z" fill="black"/>
<path d="M63.0759 18.7027C63.0759 28.8216 48.9698 37.0246 31.5691 37.0246C14.1683 37.0246 0.0622559 28.8216 0.0622559 18.7027C0.0622559 8.58379 14.1683 0.380798 31.5691 0.380798C48.9698 0.380798 63.0759 8.58379 63.0759 18.7027Z" fill="white"/>
<path d="M63.0759 18.7027C63.0759 28.8216 48.9698 37.0246 31.5691 37.0246C14.1683 37.0246 0.0622559 28.8216 0.0622559 18.7027V28.9766C0.0622559 39.0955 14.1683 47.2985 31.5691 47.2985C48.9698 47.2985 63.0759 39.0955 63.0759 28.9766V18.7027Z" fill="#1A1A1A"/>
<path d="M63.0759 18.7027C63.0759 28.8216 48.9698 37.0246 31.5691 37.0246C14.1683 37.0246 0.0622559 28.8216 0.0622559 18.7027C0.0622559 8.58379 14.1683 0.380798 31.5691 0.380798C48.9698 0.380798 63.0759 8.58379 63.0759 18.7027Z" fill="white"/>
<path d="M62.6759 18.7027C62.6759 23.5602 59.2871 28.0324 53.6467 31.3124C48.0163 34.5866 40.2115 36.6246 31.5691 36.6246C22.9266 36.6246 15.1219 34.5866 9.49147 31.3124C3.85104 28.0324 0.462256 23.5602 0.462256 18.7027C0.462256 13.8452 3.85104 9.37297 9.49147 6.09294C15.1219 2.81875 22.9266 0.780798 31.5691 0.780798C40.2115 0.780798 48.0163 2.81875 53.6467 6.09294C59.2871 9.37297 62.6759 13.8452 62.6759 18.7027ZM0.462256 28.9766V22.9007C1.83814 26.4436 4.91253 29.5751 9.0893 32.004C14.8621 35.361 22.8108 37.4246 31.5691 37.4246C40.3273 37.4246 48.276 35.361 54.0488 32.004C58.2256 29.5751 61.3 26.4436 62.6759 22.9007V28.9766C62.6759 33.8341 59.2871 38.3064 53.6467 41.5864C48.0163 44.8606 40.2115 46.8985 31.5691 46.8985C22.9266 46.8985 15.1219 44.8606 9.49147 41.5864C3.85104 38.3064 0.462256 33.8341 0.462256 28.9766Z" stroke="#1A1A1A" stroke-width="0.8"/>
<path d="M56.8543 18.5316C56.8543 22.2939 54.1267 25.7824 49.5359 28.3533C44.958 30.9169 38.6067 32.5151 31.5694 32.5151C24.5321 32.5151 18.1808 30.9169 13.6029 28.3533C9.01209 25.7824 6.28452 22.2939 6.28452 18.5316C6.28452 14.7692 9.01209 11.2807 13.6029 8.70985C18.1808 6.14622 24.5321 4.54801 31.5694 4.54801C38.6067 4.54801 44.958 6.14622 49.5359 8.70985C54.1267 11.2807 56.8543 14.7692 56.8543 18.5316Z" fill="#B4F9BA" stroke="#1A1A1A" stroke-width="0.8"/>
<path opacity="0.8" d="M21.0709 23.6448L22.2106 24.3028L24.0777 23.2248C27.9575 25.2968 31.9343 25.4088 34.6986 23.8128C38.5784 21.5728 36.6385 19.5848 34.0924 17.4428L40.8821 13.5228C42.9432 14.9648 42.9675 16.5188 40.7608 17.8768L42.3127 18.7728C45.1013 17.0788 45.2711 14.8808 42.1188 12.8088L44.0102 11.7168L42.8705 11.0588L41.0033 12.1368C37.4145 10.2608 33.5832 10.1488 30.8673 11.7168C27.9575 13.3968 28.879 15.0768 31.6918 17.5128L24.199 21.8388C21.5073 20.0608 21.8468 18.3528 24.3444 16.8268L22.7925 15.9308C19.6887 17.7788 19.228 20.1448 22.9623 22.5528L21.0709 23.6448ZM32.6375 12.5148C34.5289 11.4228 37.2205 11.4928 39.7909 12.8368L33.1952 16.6448C31.0613 14.7128 30.6006 13.6908 32.6375 12.5148ZM33.0497 22.9728C30.8188 24.2608 28.006 23.8968 25.3386 22.4968L32.589 18.3108C35.0624 20.4948 35.3291 21.6568 33.0497 22.9728Z" fill="black"/>
</svg>
