<svg width="20" height="20" viewBox="0 0 20 20" fill="none" xmlns="http://www.w3.org/2000/svg">
<path d="M1.916 0.500021C1.6654 0.498837 1.41703 0.547057 1.18507 0.641925C0.953123 0.736792 0.742144 0.876448 0.5642 1.05291C0.386257 1.22936 0.244837 1.43916 0.148028 1.67031C0.0512182 1.90146 0.000917083 2.14942 0 2.40002V15.7H1.916V2.40002H15.325V0.500021H1.916ZM5.747 4.30002C5.4964 4.29884 5.24803 4.34706 5.01607 4.44192C4.78412 4.53679 4.57314 4.67645 4.3952 4.85291C4.21726 5.02936 4.07584 5.23916 3.97903 5.47031C3.88222 5.70146 3.83192 5.94942 3.831 6.20002V17.6C3.83192 17.8506 3.88222 18.0986 3.97903 18.3297C4.07584 18.5609 4.21726 18.7707 4.3952 18.9471C4.57314 19.1236 4.78412 19.2633 5.01607 19.3581C5.24803 19.453 5.4964 19.5012 5.747 19.5H17.24C17.4906 19.5012 17.739 19.453 17.9709 19.3581C18.2029 19.2633 18.4139 19.1236 18.5918 18.9471C18.7697 18.7707 18.9112 18.5609 19.008 18.3297C19.1048 18.0986 19.1551 17.8506 19.156 17.6V6.20002C19.1551 5.94942 19.1048 5.70146 19.008 5.47031C18.9112 5.23916 18.7697 5.02936 18.5918 4.85291C18.4139 4.67645 18.2029 4.53679 17.9709 4.44192C17.739 4.34706 17.4906 4.29884 17.24 4.30002H5.747ZM5.747 6.20002H17.24V17.6H5.747V6.20002Z" fill="#666666"/>
</svg>
