<svg width="25" height="18" viewBox="0 0 25 18" fill="none" xmlns="http://www.w3.org/2000/svg">
<path d="M18.3262 17.9379C18.3262 17.9379 17.5707 17.035 16.9412 16.258C19.6903 15.4811 20.7396 13.7802 20.7396 13.7802C19.8792 14.3472 19.0607 14.7462 18.3262 15.0191C17.2769 15.4601 16.2696 15.7331 15.2833 15.9221C13.2686 16.3 11.4219 16.195 9.8479 15.9011C8.6517 15.6701 7.62339 15.3551 6.76296 14.9981C6.28029 14.8091 5.75564 14.5782 5.23099 14.2842C5.16803 14.2422 5.10507 14.2212 5.04212 14.1792C5.00014 14.1582 4.97916 14.1372 4.95817 14.1372C4.58042 13.9272 4.37056 13.7802 4.37056 13.7802C4.37056 13.7802 5.37789 15.4391 8.04311 16.237C7.41353 17.035 6.63705 17.9589 6.63705 17.9589C1.99915 17.8119 0.236328 14.7881 0.236328 14.7881C0.236328 8.08972 3.25831 2.65119 3.25831 2.65119C6.28029 0.404377 9.13438 0.467371 9.13438 0.467371L9.34424 0.71935C5.56676 1.79026 3.84592 3.44912 3.84592 3.44912C3.84592 3.44912 4.30761 3.19714 5.08409 2.86117C7.32959 1.87425 9.11339 1.62227 9.8479 1.53828C9.97382 1.51728 10.0787 1.49628 10.2047 1.49628C11.4848 1.3283 12.9328 1.2863 14.4438 1.45429C16.4375 1.68527 18.5781 2.27322 20.7606 3.44912C20.7606 3.44912 19.1027 1.87425 15.5351 0.803343L15.8289 0.467371C15.8289 0.467371 18.704 0.404377 21.705 2.65119C21.705 2.65119 24.727 8.08972 24.727 14.7881C24.727 14.7672 22.9641 17.7909 18.3262 17.9379Z" fill="black"/>
</svg>
