<svg width="116" height="17" viewBox="0 0 116 17" fill="none" xmlns="http://www.w3.org/2000/svg">
<g clip-path="url(#clip0_986_1659)">
<path d="M4.22307 3.09789L6.57788 1.738C6.64494 1.69931 6.72812 1.69931 6.79518 1.738L13.0014 5.32117C13.0685 5.35985 13.1097 5.43143 13.1104 5.5088L13.1188 7.97324C13.1188 8.05126 13.0775 8.12348 13.0098 8.16216L10.6582 9.52012C10.5138 9.60394 10.3326 9.49948 10.3319 9.33248L10.3242 7.12081C10.3242 7.04343 10.2823 6.97186 10.2152 6.93317L4.22307 3.47445C4.07799 3.39063 4.07799 3.18171 4.22307 3.09789Z" fill="#010101"/>
<path d="M2.70191 14.2605L0.347741 12.9012C0.280037 12.8625 0.23877 12.791 0.23877 12.7129V5.5466C0.23877 5.46923 0.280037 5.39765 0.347096 5.35832L2.47752 4.11837C2.54523 4.07903 2.62841 4.07903 2.69547 4.11837L5.04706 5.47632C5.19149 5.56014 5.19214 5.76842 5.0477 5.85288L3.13651 6.96517C3.06945 7.00386 3.02818 7.07543 3.02818 7.15345V14.0728C3.02818 14.2405 2.84699 14.3449 2.70191 14.2611V14.2605Z" fill="#010101"/>
<path d="M13.1185 9.99362V12.7121C13.1185 12.7901 13.0773 12.8617 13.0096 12.9004L6.80333 16.4836C6.73628 16.5222 6.65374 16.5222 6.58668 16.4836L4.44787 15.2584C4.38017 15.2197 4.33826 15.1475 4.33826 15.0695V12.3542C4.33826 12.1872 4.5188 12.0828 4.66388 12.1653L6.58281 13.2647C6.64987 13.3034 6.73241 13.3027 6.79947 13.2647L12.7916 9.8047C12.9367 9.72087 13.1179 9.82533 13.1179 9.99298L13.1185 9.99362Z" fill="#010101"/>
<path d="M33.2442 5.44685H30.8403C30.7359 5.44685 30.6521 5.53132 30.6521 5.63577V10.2081C30.6521 10.7929 30.5573 11.2823 30.3671 11.6756C30.1768 12.0574 29.9157 12.3436 29.583 12.5345C29.2503 12.7131 28.8698 12.8034 28.4423 12.8034C27.824 12.8034 27.3429 12.6183 26.9986 12.2489C26.6659 11.8671 26.4995 11.2759 26.4995 10.4769V5.63642C26.4995 5.53196 26.4151 5.44749 26.3112 5.44749H24.5651C24.5509 5.44491 24.5367 5.44362 24.5226 5.44362H21.0445V5.25018C21.0445 4.78463 21.1515 4.43902 21.3656 4.21205C21.5913 3.97347 21.9066 3.85419 22.3102 3.85419C22.5243 3.85419 22.7261 3.88385 22.9164 3.94381C23.0337 3.98121 23.1491 4.02957 23.2491 4.08245C23.349 4.13532 23.4728 4.08502 23.5109 3.97799L24.1118 2.31504C24.1428 2.22864 24.108 2.13192 24.0286 2.08614C23.7939 1.95009 23.5186 1.84756 23.2014 1.77792C22.8332 1.69474 22.4469 1.65283 22.0427 1.65283C20.8549 1.65283 19.94 1.98104 19.2977 2.63744C18.6562 3.2816 18.335 4.14693 18.335 5.23277V5.44362H17.079C16.9558 5.44362 16.8552 5.52809 16.8552 5.63255V7.40189C16.8552 7.50634 16.9552 7.59081 17.079 7.59081H18.335V14.8867C18.335 14.9912 18.4195 15.0757 18.5233 15.0757H20.9265C21.0303 15.0757 21.1148 14.9912 21.1148 14.8867V7.59081H23.7185V10.8877C23.7185 11.8781 23.8907 12.6957 24.2356 13.3399C24.5806 13.9724 25.0616 14.4438 25.6793 14.7539C26.3093 15.0641 27.0225 15.2195 27.8181 15.2195C28.5552 15.2195 29.2322 15.0525 29.8499 14.7178C30.2175 14.516 30.5321 14.2581 30.7946 13.946V14.8867C30.7946 14.9912 30.879 15.0757 30.9828 15.0757H33.2442C33.3486 15.0757 33.4324 14.9912 33.4324 14.8867V5.63642C33.4324 5.53196 33.348 5.44749 33.2442 5.44749V5.44685Z" fill="#010101"/>
<path d="M41.338 10.0286C41.0053 9.82548 40.6307 9.67073 40.2148 9.56305C39.7995 9.45601 39.383 9.37799 38.9671 9.33027C38.5634 9.27031 38.1888 9.20518 37.8438 9.13361C37.4995 9.06204 37.2197 8.96661 37.0062 8.84732C36.8038 8.72803 36.7032 8.54942 36.7032 8.3102C36.7032 8.04776 36.8457 7.83304 37.1313 7.66604C37.4163 7.49904 37.8683 7.41586 38.4861 7.41586C38.9258 7.41586 39.3772 7.46938 39.8408 7.57706C40.2567 7.66024 40.6674 7.81241 41.0743 8.03293C41.1704 8.08452 41.289 8.04647 41.3354 7.94782L42.1028 6.30357C42.1447 6.21395 42.1105 6.10562 42.0241 6.05855C41.5998 5.82706 41.0865 5.64717 40.483 5.52014C39.806 5.37699 39.1405 5.30542 38.4867 5.30542C37.5601 5.30542 36.7638 5.44276 36.0984 5.7168C35.4329 5.97988 34.9222 6.34355 34.5657 6.8091C34.2213 7.27465 34.0485 7.81112 34.0485 8.41981C34.0485 8.96854 34.1498 9.41603 34.3516 9.76229C34.5657 10.1079 34.8449 10.3826 35.1892 10.5857C35.5342 10.7888 35.9139 10.9436 36.3298 11.0513C36.7457 11.1467 37.1558 11.2241 37.5595 11.284C37.9754 11.344 38.3558 11.4033 38.7001 11.4626C39.0445 11.5226 39.3179 11.6122 39.5203 11.7315C39.7344 11.8392 39.8414 12.0062 39.8414 12.2325C39.8414 12.5072 39.7047 12.7219 39.4313 12.8767C39.1702 13.0314 38.7182 13.1095 38.0766 13.1095C37.4944 13.1095 36.9005 13.0263 36.2944 12.8593C35.7779 12.7039 35.3201 12.5124 34.9203 12.2848C34.8242 12.2299 34.7024 12.2686 34.6559 12.3692L33.886 14.0348C33.8454 14.1224 33.8783 14.2263 33.9602 14.2766C34.3825 14.5345 34.9287 14.7543 35.5986 14.9355C36.3589 15.1264 37.1494 15.2218 37.9689 15.2218V15.2205C38.931 15.2205 39.7454 15.0896 40.4108 14.8272C41.0878 14.5648 41.605 14.2069 41.9615 13.7536C42.3181 13.2887 42.4961 12.7574 42.4961 12.161C42.4961 11.6122 42.389 11.1705 42.175 10.8365C41.9609 10.4903 41.6817 10.222 41.3374 10.0312L41.338 10.0286Z" fill="#010101"/>
<path d="M52.1242 7.63153C51.6845 6.87969 51.0848 6.30711 50.3239 5.91314C49.5753 5.50756 48.7674 5.30444 47.7931 5.30444C46.8188 5.30444 45.9451 5.51916 45.1732 5.9486C44.4008 6.36579 43.7889 6.95062 43.3375 7.70246C42.8977 8.44205 42.6779 9.30737 42.6779 10.2617C42.6779 11.216 42.9035 12.0697 43.3549 12.8209C43.8063 13.5605 44.442 14.1453 45.2616 14.5748C46.0934 15.0042 47.0554 15.2189 48.149 15.2189V15.2202C49.0169 15.2202 49.7836 15.0887 50.4484 14.8269C51.0551 14.5767 51.5677 14.2317 51.9869 13.7933C52.0552 13.7217 52.0552 13.6082 51.9882 13.5347L50.7534 12.1903C50.6837 12.1148 50.5677 12.1097 50.4896 12.1774C50.2053 12.4256 49.8945 12.6165 49.5566 12.75C49.1762 12.9047 48.7306 12.9827 48.2199 12.9827C47.6499 12.9827 47.1509 12.8815 46.7227 12.6784C46.3068 12.4637 45.9799 12.1593 45.7426 11.766C45.6194 11.5455 45.5318 11.3063 45.4757 11.0496H52.5588C52.6555 11.0496 52.7368 10.9755 52.7458 10.8788C52.7522 10.8123 52.7587 10.7433 52.7645 10.6737C52.7767 10.5306 52.7825 10.4055 52.7825 10.2978C52.7825 9.25966 52.5627 8.37112 52.1229 7.63089L52.1242 7.63153ZM46.5454 7.73922C46.9136 7.5245 47.3359 7.41681 47.8111 7.41681C48.2863 7.41681 48.7022 7.5245 49.0588 7.73922C49.4154 7.94168 49.6946 8.22862 49.8964 8.59809C50.0305 8.84312 50.1189 9.1178 50.164 9.42086H45.4434C45.4898 9.12296 45.5775 8.85408 45.7078 8.6155C45.9102 8.23378 46.1888 7.94168 46.5454 7.73857V7.73922Z" fill="#010101"/>
</g>
<path d="M61.2799 14.7496C60.5037 14.7496 59.7865 14.6218 59.1282 14.3664C58.47 14.1011 57.9001 13.7327 57.4187 13.2611C56.9373 12.7895 56.5591 12.2344 56.284 11.5958C56.0187 10.9572 55.8861 10.2597 55.8861 9.50315C55.8861 8.74665 56.0187 8.04909 56.284 7.41049C56.5591 6.77188 56.9373 6.21678 57.4187 5.7452C57.91 5.27361 58.4847 4.91009 59.143 4.65465C59.8012 4.38938 60.5184 4.25675 61.2946 4.25675C62.0413 4.25675 62.7437 4.38447 63.402 4.63992C64.0602 4.88553 64.6153 5.25887 65.0673 5.75993L64.3746 6.45258C63.9522 6.02029 63.4855 5.71081 62.9746 5.52414C62.4637 5.32765 61.9135 5.2294 61.3241 5.2294C60.7051 5.2294 60.1304 5.33747 59.5998 5.55361C59.0693 5.75993 58.6075 6.05959 58.2145 6.45258C57.8215 6.83574 57.5121 7.28768 57.2861 7.80839C57.07 8.31927 56.9619 8.8842 56.9619 9.50315C56.9619 10.1221 57.07 10.6919 57.2861 11.2127C57.5121 11.7235 57.8215 12.1755 58.2145 12.5685C58.6075 12.9516 59.0693 13.2513 59.5998 13.4674C60.1304 13.6737 60.7051 13.7769 61.3241 13.7769C61.9135 13.7769 62.4637 13.6787 62.9746 13.4822C63.4855 13.2857 63.9522 12.9713 64.3746 12.539L65.0673 13.2316C64.6153 13.7327 64.0602 14.1109 63.402 14.3664C62.7437 14.6218 62.0364 14.7496 61.2799 14.7496ZM69.9793 14.7348C69.2327 14.7348 68.5597 14.5678 67.9604 14.2338C67.3709 13.8899 66.9042 13.4232 66.5603 12.8337C66.2165 12.2344 66.0445 11.5516 66.0445 10.7853C66.0445 10.0091 66.2165 9.32631 66.5603 8.73682C66.9042 8.14734 67.3709 7.68558 67.9604 7.35154C68.5498 7.0175 69.2228 6.85048 69.9793 6.85048C70.7457 6.85048 71.4236 7.0175 72.0131 7.35154C72.6124 7.68558 73.079 8.14734 73.4131 8.73682C73.7569 9.32631 73.9289 10.0091 73.9289 10.7853C73.9289 11.5516 73.7569 12.2344 73.4131 12.8337C73.079 13.4232 72.6124 13.8899 72.0131 14.2338C71.4137 14.5678 70.7358 14.7348 69.9793 14.7348ZM69.9793 13.8064C70.5393 13.8064 71.0355 13.6836 71.4678 13.438C71.9001 13.1825 72.239 12.8288 72.4846 12.3769C72.7401 11.9151 72.8678 11.3846 72.8678 10.7853C72.8678 10.1761 72.7401 9.64561 72.4846 9.19367C72.239 8.74174 71.9001 8.39296 71.4678 8.14734C71.0355 7.8919 70.5443 7.76418 69.9941 7.76418C69.4439 7.76418 68.9527 7.8919 68.5204 8.14734C68.0881 8.39296 67.7442 8.74174 67.4888 9.19367C67.2333 9.64561 67.1056 10.1761 67.1056 10.7853C67.1056 11.3846 67.2333 11.9151 67.4888 12.3769C67.7442 12.8288 68.0881 13.1825 68.5204 13.438C68.9527 13.6836 69.439 13.8064 69.9793 13.8064ZM80.0146 6.85048C80.6434 6.85048 81.1936 6.97329 81.6652 7.21891C82.1466 7.4547 82.5199 7.81821 82.7852 8.30945C83.0603 8.80069 83.1978 9.41964 83.1978 10.1663V14.6611H82.1515V10.2695C82.1515 9.45403 81.9452 8.83998 81.5325 8.42735C81.1297 8.00488 80.5599 7.79365 79.823 7.79365C79.2728 7.79365 78.7914 7.90664 78.3788 8.1326C77.976 8.34875 77.6616 8.66805 77.4356 9.09051C77.2195 9.50315 77.1114 10.0042 77.1114 10.5937V14.6611H76.0651V6.92416H77.0672V9.0463L76.9051 8.6484C77.1507 8.08839 77.5437 7.65119 78.084 7.3368C78.6244 7.01259 79.2679 6.85048 80.0146 6.85048ZM88.102 14.7348C87.4634 14.7348 86.8592 14.6464 86.2894 14.4696C85.7195 14.2829 85.2725 14.052 84.9483 13.7769L85.4199 12.9516C85.7343 13.1874 86.1371 13.3937 86.6283 13.5706C87.1196 13.7376 87.6354 13.8211 88.1757 13.8211C88.9126 13.8211 89.4431 13.7081 89.7673 13.4822C90.0915 13.2464 90.2537 12.9369 90.2537 12.5537C90.2537 12.2688 90.1603 12.0478 89.9736 11.8906C89.7968 11.7235 89.561 11.6007 89.2663 11.5221C88.9715 11.4337 88.6424 11.36 88.2789 11.3011C87.9154 11.2421 87.5519 11.1734 87.1883 11.0948C86.8346 11.0162 86.5104 10.9032 86.2157 10.7558C85.9209 10.5986 85.6802 10.3874 85.4936 10.1221C85.3167 9.85684 85.2283 9.50315 85.2283 9.06104C85.2283 8.63858 85.3462 8.26033 85.582 7.92628C85.8178 7.59224 86.1617 7.33189 86.6136 7.14522C87.0754 6.94872 87.6354 6.85048 88.2936 6.85048C88.7947 6.85048 89.2957 6.91925 89.7968 7.0568C90.2979 7.18452 90.7105 7.35645 91.0347 7.57259L90.5779 8.41261C90.234 8.17682 89.8656 8.0098 89.4726 7.91155C89.0796 7.80348 88.6866 7.74944 88.2936 7.74944C87.5961 7.74944 87.0803 7.87225 86.7462 8.11787C86.422 8.35366 86.2599 8.65823 86.2599 9.03157C86.2599 9.32631 86.3483 9.55719 86.5252 9.72421C86.7118 9.89123 86.9525 10.0239 87.2473 10.1221C87.5519 10.2105 87.881 10.2842 88.2347 10.3432C88.5982 10.4021 88.9568 10.4758 89.3105 10.5642C89.674 10.6428 90.0031 10.7558 90.2979 10.9032C90.6024 11.0407 90.8431 11.2421 91.02 11.5074C91.2066 11.7628 91.3 12.1018 91.3 12.5243C91.3 12.9762 91.1723 13.3692 90.9168 13.7032C90.6712 14.0274 90.3077 14.2829 89.8263 14.4696C89.3547 14.6464 88.7799 14.7348 88.102 14.7348ZM96.3737 14.7348C95.627 14.7348 94.954 14.5678 94.3547 14.2338C93.7652 13.8899 93.2985 13.4232 92.9547 12.8337C92.6108 12.2344 92.4389 11.5516 92.4389 10.7853C92.4389 10.0091 92.6108 9.32631 92.9547 8.73682C93.2985 8.14734 93.7652 7.68558 94.3547 7.35154C94.9442 7.0175 95.6172 6.85048 96.3737 6.85048C97.14 6.85048 97.8179 7.0175 98.4074 7.35154C99.0067 7.68558 99.4734 8.14734 99.8074 8.73682C100.151 9.32631 100.323 10.0091 100.323 10.7853C100.323 11.5516 100.151 12.2344 99.8074 12.8337C99.4734 13.4232 99.0067 13.8899 98.4074 14.2338C97.8081 14.5678 97.1302 14.7348 96.3737 14.7348ZM96.3737 13.8064C96.9337 13.8064 97.4298 13.6836 97.8621 13.438C98.2944 13.1825 98.6334 12.8288 98.879 12.3769C99.1344 11.9151 99.2622 11.3846 99.2622 10.7853C99.2622 10.1761 99.1344 9.64561 98.879 9.19367C98.6334 8.74174 98.2944 8.39296 97.8621 8.14734C97.4298 7.8919 96.9386 7.76418 96.3884 7.76418C95.8382 7.76418 95.347 7.8919 94.9147 8.14734C94.4824 8.39296 94.1386 8.74174 93.8831 9.19367C93.6277 9.64561 93.5 10.1761 93.5 10.7853C93.5 11.3846 93.6277 11.9151 93.8831 12.3769C94.1386 12.8288 94.4824 13.1825 94.9147 13.438C95.347 13.6836 95.8333 13.8064 96.3737 13.8064ZM102.459 14.6611V3.72622H103.506V14.6611H102.459ZM109.703 14.7348C108.898 14.7348 108.19 14.5678 107.581 14.2338C106.972 13.8899 106.496 13.4232 106.152 12.8337C105.808 12.2344 105.636 11.5516 105.636 10.7853C105.636 10.019 105.798 9.34105 106.122 8.75156C106.456 8.16208 106.908 7.70032 107.478 7.36628C108.058 7.02241 108.706 6.85048 109.423 6.85048C110.151 6.85048 110.794 7.0175 111.354 7.35154C111.924 7.67575 112.371 8.13752 112.695 8.73682C113.019 9.32631 113.181 10.0091 113.181 10.7853C113.181 10.8344 113.177 10.8884 113.167 10.9474C113.167 10.9965 113.167 11.0505 113.167 11.1095H106.432V10.3284H112.607L112.194 10.6379C112.194 10.0779 112.071 9.58175 111.826 9.14946C111.59 8.70735 111.266 8.36348 110.853 8.11787C110.44 7.87225 109.964 7.74944 109.423 7.74944C108.893 7.74944 108.416 7.87225 107.994 8.11787C107.572 8.36348 107.242 8.70735 107.007 9.14946C106.771 9.59158 106.653 10.0975 106.653 10.6674V10.8295C106.653 11.419 106.781 11.9397 107.036 12.3916C107.301 12.8337 107.665 13.1825 108.127 13.438C108.598 13.6836 109.134 13.8064 109.733 13.8064C110.205 13.8064 110.642 13.7229 111.045 13.5559C111.457 13.3888 111.811 13.1334 112.106 12.7895L112.695 13.4674C112.351 13.8801 111.919 14.1945 111.398 14.4106C110.887 14.6267 110.322 14.7348 109.703 14.7348Z" fill="black"/>
<defs>
<clipPath id="clip0_986_1659">
<rect width="52.5443" height="14.8608" fill="white" transform="translate(0.23877 1.65283)"/>
</clipPath>
</defs>
</svg>
