<svg width="86" height="25" viewBox="0 0 86 25" fill="none" xmlns="http://www.w3.org/2000/svg">
<g clip-path="url(#clip0_95_126)">
<path d="M6.48848 2.75249L10.3234 0.537855C10.4326 0.474849 10.5681 0.474849 10.6773 0.537855L20.7844 6.3732C20.8936 6.4362 20.9608 6.55276 20.9619 6.67877L20.9755 10.6922C20.9755 10.8193 20.9083 10.9369 20.798 10.9999L16.9684 13.2114C16.7331 13.3479 16.4381 13.1778 16.437 12.9058L16.4244 9.304C16.4244 9.17799 16.3562 9.06143 16.247 8.99842L6.48848 3.36574C6.25221 3.22923 6.25221 2.889 6.48848 2.75249Z" fill="#010101"/>
<path d="M4.01134 20.9315L0.177465 18.7179C0.0672057 18.6549 0 18.5383 0 18.4113V6.74057C0 6.61455 0.0672057 6.498 0.176415 6.43394L3.64591 4.41462C3.75617 4.35056 3.89163 4.35056 4.00084 4.41462L7.83051 6.62611C8.06573 6.76262 8.06678 7.1018 7.83156 7.23936L4.7191 9.05076C4.60989 9.11377 4.54269 9.23033 4.54269 9.35739V20.6259C4.54269 20.8989 4.24761 21.069 4.01134 20.9325V20.9315Z" fill="#010101"/>
<path d="M20.9756 13.9831V18.4103C20.9756 18.5374 20.9084 18.6539 20.7981 18.7169L10.691 24.5523C10.5818 24.6153 10.4474 24.6153 10.3382 24.5523L6.85503 22.5571C6.74477 22.4941 6.67651 22.3765 6.67651 22.2494V17.8275C6.67651 17.5555 6.97054 17.3854 7.20681 17.5198L10.3319 19.3102C10.4411 19.3732 10.5755 19.3722 10.6847 19.3102L20.4432 13.6754C20.6794 13.5389 20.9745 13.709 20.9745 13.9821L20.9756 13.9831Z" fill="#010101"/>
<path d="M53.7509 6.57802H49.8362C49.6661 6.57802 49.5295 6.71558 49.5295 6.88569V14.3319C49.5295 15.2843 49.3752 16.0813 49.0654 16.7219C48.7556 17.3435 48.3303 17.8098 47.7885 18.1206C47.2467 18.4115 46.6271 18.5585 45.9309 18.5585C44.9239 18.5585 44.1405 18.2571 43.5797 17.6554C43.0379 17.0338 42.767 16.0708 42.767 14.7698V6.88674C42.767 6.71663 42.6294 6.57907 42.4603 6.57907H39.6167C39.5936 6.57486 39.5705 6.57276 39.5474 6.57276H33.8832V6.25774C33.8832 5.49957 34.0575 4.93673 34.4062 4.56709C34.7737 4.17856 35.2872 3.9843 35.9445 3.9843C36.2932 3.9843 36.6219 4.0326 36.9316 4.13026C37.1227 4.19116 37.3107 4.26992 37.4735 4.35603C37.6362 4.44213 37.8379 4.36023 37.8998 4.18591L38.8785 1.47773C38.9289 1.33702 38.8722 1.17951 38.743 1.10495C38.3608 0.883383 37.9124 0.716419 37.3958 0.603009C36.7962 0.467548 36.1672 0.399292 35.5088 0.399292C33.5745 0.399292 32.0844 0.933787 31.0385 2.00278C29.9937 3.05182 29.4707 4.46104 29.4707 6.22939V6.57276H27.4252C27.2246 6.57276 27.0608 6.71033 27.0608 6.88044V9.76189C27.0608 9.932 27.2236 10.0696 27.4252 10.0696H29.4707V21.9513C29.4707 22.1214 29.6083 22.259 29.7774 22.259H33.6911C33.8601 22.259 33.9977 22.1214 33.9977 21.9513V10.0696H38.2379V15.4387C38.2379 17.0516 38.5183 18.3831 39.0801 19.4322C39.6419 20.4623 40.4253 21.2299 41.4313 21.735C42.4572 22.2401 43.6186 22.4932 44.9144 22.4932C46.1147 22.4932 47.2172 22.2212 48.2232 21.6762C48.8218 21.3475 49.3342 20.9275 49.7616 20.4192V21.9513C49.7616 22.1214 49.8992 22.259 50.0682 22.259H53.7509C53.921 22.259 54.0575 22.1214 54.0575 21.9513V6.88674C54.0575 6.71663 53.92 6.57907 53.7509 6.57907V6.57802Z" fill="#010101"/>
<path d="M66.9318 14.0389C66.3899 13.7081 65.7798 13.4561 65.1025 13.2807C64.4263 13.1064 63.7479 12.9793 63.0706 12.9016C62.4132 12.804 61.8031 12.6979 61.2414 12.5814C60.6806 12.4648 60.2249 12.3094 59.8773 12.1151C59.5476 11.9209 59.3837 11.63 59.3837 11.2404C59.3837 10.813 59.6158 10.4633 60.081 10.1914C60.5451 9.91939 61.2812 9.78393 62.2872 9.78393C63.0034 9.78393 63.7385 9.87108 64.4935 10.0464C65.1708 10.1819 65.8397 10.4297 66.5023 10.7889C66.6588 10.8729 66.852 10.8109 66.9276 10.6502L68.1772 7.97252C68.2454 7.82656 68.1898 7.65015 68.0491 7.57349C67.3581 7.19651 66.5222 6.90353 65.5394 6.69666C64.4368 6.46354 63.3531 6.34698 62.2883 6.34698C60.7793 6.34698 59.4825 6.57065 58.3988 7.01694C57.3151 7.44538 56.4834 8.03763 55.9027 8.79579C55.3419 9.55396 55.0605 10.4276 55.0605 11.4189C55.0605 12.3125 55.2254 13.0413 55.5541 13.6052C55.9027 14.168 56.3574 14.6154 56.9181 14.9462C57.4799 15.2769 58.0984 15.529 58.7757 15.7043C59.453 15.8597 60.1209 15.9858 60.7783 16.0834C61.4556 16.1811 62.0751 16.2777 62.6359 16.3743C63.1966 16.4719 63.6419 16.6179 63.9716 16.8122C64.3202 16.9875 64.4945 17.2595 64.4945 17.6281C64.4945 18.0754 64.2719 18.4251 63.8267 18.6771C63.4014 18.9292 62.6653 19.0562 61.6204 19.0562C60.6722 19.0562 59.7051 18.9207 58.718 18.6488C57.8769 18.3957 57.1313 18.0838 56.4802 17.7131C56.3238 17.6239 56.1253 17.6869 56.0497 17.8507L54.7959 20.5631C54.7297 20.7059 54.7833 20.875 54.9167 20.9569C55.6045 21.3769 56.4939 21.735 57.5849 22.0301C58.823 22.3409 60.1104 22.4963 61.4451 22.4963V22.4942C63.0118 22.4942 64.3381 22.281 65.4218 21.8536C66.5243 21.4263 67.3665 20.8435 67.9472 20.1053C68.5279 19.3481 68.8177 18.4829 68.8177 17.5115C68.8177 16.6179 68.6434 15.8986 68.2948 15.3546C67.9462 14.7907 67.4915 14.3539 66.9307 14.0431L66.9318 14.0389Z" fill="#010101"/>
<path d="M84.4976 10.1357C83.7814 8.91128 82.8048 7.9788 81.5657 7.3372C80.3466 6.67669 79.0308 6.34592 77.4441 6.34592C75.8574 6.34592 74.4346 6.6956 73.1776 7.39496C71.9196 8.07436 70.9231 9.02679 70.188 10.2512C69.4719 11.4556 69.1138 12.8649 69.1138 14.419C69.1138 15.9731 69.4813 17.3634 70.2164 18.5868C70.9514 19.7913 71.9868 20.7437 73.3215 21.443C74.6761 22.1424 76.2428 22.4921 78.0238 22.4921V22.4942C79.4372 22.4942 80.6858 22.28 81.7684 21.8536C82.7565 21.4462 83.5913 20.8844 84.2739 20.1703C84.3852 20.0538 84.3852 19.869 84.276 19.7493L82.2651 17.5598C82.1517 17.437 81.9627 17.4286 81.8356 17.5388C81.3725 17.9431 80.8664 18.2539 80.3161 18.4713C79.6966 18.7233 78.971 18.8504 78.1393 18.8504C77.211 18.8504 76.3982 18.6855 75.701 18.3547C75.0237 18.0051 74.4913 17.5094 74.1048 16.8689C73.9043 16.5097 73.7615 16.1201 73.6701 15.7022H85.2053C85.3628 15.7022 85.4952 15.5814 85.5099 15.4239C85.5204 15.3158 85.5309 15.2034 85.5403 15.09C85.5603 14.8569 85.5697 14.6532 85.5697 14.4778C85.5697 12.7872 85.2116 11.3401 84.4955 10.1346L84.4976 10.1357ZM75.4122 10.3111C76.0118 9.96137 76.6996 9.78601 77.4735 9.78601C78.2474 9.78601 78.9248 9.96137 79.5055 10.3111C80.0862 10.6408 80.5408 11.1081 80.8695 11.7098C81.0879 12.1088 81.2318 12.5561 81.3053 13.0497H73.6176C73.6932 12.5645 73.836 12.1267 74.0481 11.7381C74.3779 11.1165 74.8315 10.6408 75.4122 10.31V10.3111Z" fill="#010101"/>
</g>
<defs>
<clipPath id="clip0_95_126">
<rect width="85.5707" height="24.2014" fill="white" transform="translate(0 0.399292)"/>
</clipPath>
</defs>
</svg>
