<svg width="186" height="27" viewBox="0 0 186 27" fill="none" xmlns="http://www.w3.org/2000/svg">
<g clip-path="url(#clip0_8914_17191)">
<path d="M6.48848 2.75249L10.3234 0.537855C10.4326 0.474849 10.5681 0.474849 10.6773 0.537855L20.7844 6.3732C20.8936 6.4362 20.9608 6.55276 20.9619 6.67877L20.9755 10.6922C20.9755 10.8193 20.9083 10.9369 20.798 10.9999L16.9684 13.2114C16.7331 13.3479 16.4381 13.1778 16.437 12.9058L16.4244 9.304C16.4244 9.17799 16.3562 9.06143 16.247 8.99842L6.48848 3.36574C6.25221 3.22923 6.25221 2.889 6.48848 2.75249Z" fill="#010101"/>
<path d="M4.01134 20.9315L0.177465 18.7179C0.0672057 18.6549 0 18.5383 0 18.4113V6.74057C0 6.61455 0.0672057 6.498 0.176415 6.43394L3.64591 4.41462C3.75617 4.35056 3.89163 4.35056 4.00084 4.41462L7.83051 6.62611C8.06573 6.76262 8.06678 7.1018 7.83156 7.23936L4.7191 9.05076C4.60989 9.11377 4.54269 9.23033 4.54269 9.35739V20.6259C4.54269 20.8989 4.24761 21.069 4.01134 20.9325V20.9315Z" fill="#010101"/>
<path d="M20.9756 13.9831V18.4103C20.9756 18.5374 20.9084 18.6539 20.7982 18.7169L10.6911 24.5523C10.5819 24.6153 10.4474 24.6153 10.3382 24.5523L6.85509 22.5571C6.74483 22.4941 6.67657 22.3765 6.67657 22.2494V17.8275C6.67657 17.5555 6.9706 17.3854 7.20687 17.5198L10.3319 19.3102C10.4411 19.3732 10.5756 19.3722 10.6848 19.3102L20.4432 13.6754C20.6795 13.5389 20.9746 13.709 20.9746 13.9821L20.9756 13.9831Z" fill="#010101"/>
<path d="M53.7509 6.57802H49.8361C49.666 6.57802 49.5295 6.71558 49.5295 6.88569V14.3319C49.5295 15.2843 49.3751 16.0813 49.0654 16.7219C48.7556 17.3435 48.3303 17.8098 47.7884 18.1206C47.2466 18.4115 46.627 18.5585 45.9308 18.5585C44.9238 18.5585 44.1404 18.2571 43.5797 17.6554C43.0378 17.0338 42.7669 16.0708 42.7669 14.7698V6.88674C42.7669 6.71663 42.6294 6.57907 42.4603 6.57907H39.6167C39.5936 6.57486 39.5704 6.57276 39.5473 6.57276H33.8832V6.25774C33.8832 5.49957 34.0575 4.93673 34.4061 4.56709C34.7736 4.17856 35.2871 3.9843 35.9445 3.9843C36.2931 3.9843 36.6218 4.0326 36.9316 4.13026C37.1227 4.19116 37.3107 4.26992 37.4734 4.35603C37.6362 4.44213 37.8378 4.36023 37.8998 4.18591L38.8784 1.47773C38.9288 1.33702 38.8721 1.17951 38.743 1.10495C38.3607 0.883383 37.9124 0.716419 37.3957 0.603009C36.7961 0.467548 36.1671 0.399292 35.5087 0.399292C33.5744 0.399292 32.0844 0.933787 31.0385 2.00278C29.9936 3.05182 29.4707 4.46104 29.4707 6.22939V6.57276H27.4251C27.2246 6.57276 27.0607 6.71033 27.0607 6.88044V9.76189C27.0607 9.932 27.2235 10.0696 27.4251 10.0696H29.4707V21.9513C29.4707 22.1214 29.6083 22.259 29.7773 22.259H33.691C33.8601 22.259 33.9976 22.1214 33.9976 21.9513V10.0696H38.2379V15.4387C38.2379 17.0516 38.5183 18.3831 39.0801 19.4322C39.6419 20.4623 40.4252 21.2299 41.4312 21.735C42.4571 22.2401 43.6185 22.4932 44.9144 22.4932C46.1146 22.4932 47.2172 22.2212 48.2232 21.6762C48.8217 21.3475 49.3342 20.9275 49.7616 20.4192V21.9513C49.7616 22.1214 49.8991 22.259 50.0682 22.259H53.7509C53.921 22.259 54.0575 22.1214 54.0575 21.9513V6.88674C54.0575 6.71663 53.9199 6.57907 53.7509 6.57907V6.57802Z" fill="#010101"/>
<path d="M66.9316 14.0388C66.3898 13.708 65.7797 13.456 65.1024 13.2807C64.4261 13.1063 63.7478 12.9793 63.0705 12.9016C62.4131 12.8039 61.803 12.6979 61.2412 12.5813C60.6805 12.4647 60.2247 12.3093 59.8771 12.1151C59.5474 11.9208 59.3836 11.6299 59.3836 11.2403C59.3836 10.813 59.6157 10.4633 60.0809 10.1913C60.545 9.91933 61.2811 9.78387 62.2871 9.78387C63.0033 9.78387 63.7383 9.87102 64.4933 10.0464C65.1706 10.1818 65.8395 10.4297 66.5021 10.7888C66.6586 10.8728 66.8518 10.8109 66.9274 10.6502L68.177 7.97246C68.2453 7.8265 68.1896 7.65008 68.0489 7.57343C67.358 7.19645 66.5221 6.90347 65.5392 6.6966C64.4366 6.46348 63.3529 6.34692 62.2881 6.34692C60.7792 6.34692 59.4823 6.57059 58.3986 7.01688C57.3149 7.44532 56.4833 8.03757 55.9026 8.79573C55.3418 9.5539 55.0604 10.4276 55.0604 11.4189C55.0604 12.3125 55.2252 13.0412 55.5539 13.6051C55.9026 14.168 56.3572 14.6153 56.918 14.9461C57.4798 15.2769 58.0983 15.5289 58.7756 15.7043C59.4529 15.8597 60.1208 15.9857 60.7781 16.0833C61.4554 16.181 62.075 16.2776 62.6357 16.3742C63.1965 16.4719 63.6417 16.6178 63.9714 16.8121C64.3201 16.9875 64.4944 17.2594 64.4944 17.628C64.4944 18.0754 64.2718 18.425 63.8265 18.6771C63.4012 18.9291 62.6651 19.0562 61.6203 19.0562C60.6721 19.0562 59.7049 18.9207 58.7178 18.6487C57.8767 18.3956 57.1312 18.0838 56.4801 17.7131C56.3236 17.6238 56.1252 17.6868 56.0496 17.8506L54.7958 20.563C54.7296 20.7058 54.7832 20.8749 54.9165 20.9568C55.6043 21.3768 56.4938 21.7349 57.5848 22.03C58.8229 22.3408 60.1103 22.4962 61.4449 22.4962V22.4941C63.0117 22.4941 64.3379 22.281 65.4216 21.8536C66.5242 21.4262 67.3664 20.8434 67.9471 20.1052C68.5278 19.3481 68.8176 18.4828 68.8176 17.5115C68.8176 16.6178 68.6433 15.8985 68.2947 15.3546C67.946 14.7907 67.4913 14.3539 66.9306 14.043L66.9316 14.0388Z" fill="#010101"/>
<path d="M84.4975 10.1357C83.7814 8.91131 82.8048 7.97884 81.5657 7.33723C80.3465 6.67673 79.0308 6.34595 77.4441 6.34595C75.8574 6.34595 74.4345 6.69563 73.1776 7.39499C71.9195 8.07439 70.923 9.02682 70.188 10.2512C69.4718 11.4557 69.1137 12.8649 69.1137 14.419C69.1137 15.9732 69.4812 17.3635 70.2163 18.5868C70.9514 19.7913 71.9868 20.7437 73.3214 21.4431C74.676 22.1424 76.2428 22.4921 78.0237 22.4921V22.4942C79.4371 22.4942 80.6857 22.28 81.7683 21.8537C82.7565 21.4462 83.5913 20.8844 84.2738 20.1704C84.3852 20.0538 84.3852 19.869 84.2759 19.7493L82.265 17.5598C82.1516 17.437 81.9626 17.4286 81.8355 17.5388C81.3724 17.9431 80.8663 18.254 80.3161 18.4713C79.6965 18.7233 78.9709 18.8504 78.1392 18.8504C77.2109 18.8504 76.3982 18.6855 75.7009 18.3548C75.0236 18.0051 74.4912 17.5094 74.1048 16.8689C73.9042 16.5098 73.7614 16.1202 73.67 15.7022H85.2053C85.3628 15.7022 85.4951 15.5815 85.5098 15.424C85.5203 15.3158 85.5308 15.2034 85.5402 15.09C85.5602 14.8569 85.5697 14.6532 85.5697 14.4778C85.5697 12.7872 85.2116 11.3402 84.4954 10.1347L84.4975 10.1357ZM75.4121 10.3111C76.0117 9.9614 76.6996 9.78604 77.4735 9.78604C78.2474 9.78604 78.9247 9.9614 79.5054 10.3111C80.0861 10.6408 80.5408 11.1081 80.8695 11.7098C81.0879 12.1088 81.2317 12.5562 81.3052 13.0497H73.6175C73.6931 12.5646 73.836 12.1267 74.0481 11.7382C74.3778 11.1165 74.8314 10.6408 75.4121 10.31V10.3111Z" fill="#010101"/>
</g>
<path d="M99.22 21.7447C97.972 21.7447 96.772 21.5447 95.62 21.1447C94.484 20.7287 93.604 20.2007 92.98 19.5607L93.676 18.1927C94.268 18.7687 95.06 19.2567 96.052 19.6567C97.06 20.0407 98.116 20.2327 99.22 20.2327C100.276 20.2327 101.132 20.1047 101.788 19.8487C102.46 19.5767 102.948 19.2167 103.252 18.7687C103.572 18.3207 103.732 17.8247 103.732 17.2807C103.732 16.6247 103.54 16.0967 103.156 15.6967C102.788 15.2967 102.3 14.9847 101.692 14.7607C101.084 14.5207 100.412 14.3127 99.676 14.1367C98.94 13.9607 98.204 13.7767 97.468 13.5847C96.732 13.3767 96.052 13.1047 95.428 12.7687C94.82 12.4327 94.324 11.9927 93.94 11.4487C93.572 10.8887 93.388 10.1607 93.388 9.26471C93.388 8.43271 93.604 7.67271 94.036 6.98471C94.484 6.28071 95.164 5.72071 96.076 5.30471C96.988 4.87271 98.156 4.65671 99.58 4.65671C100.524 4.65671 101.46 4.79271 102.388 5.06471C103.316 5.32071 104.116 5.68071 104.788 6.14471L104.188 7.56071C103.468 7.08071 102.7 6.72871 101.884 6.50471C101.084 6.28071 100.308 6.16871 99.556 6.16871C98.548 6.16871 97.716 6.30471 97.06 6.57671C96.404 6.84871 95.916 7.21671 95.596 7.68071C95.292 8.12871 95.14 8.64071 95.14 9.21671C95.14 9.87271 95.324 10.4007 95.692 10.8007C96.076 11.2007 96.572 11.5127 97.18 11.7367C97.804 11.9607 98.484 12.1607 99.22 12.3367C99.956 12.5127 100.684 12.7047 101.404 12.9127C102.14 13.1207 102.812 13.3927 103.42 13.7287C104.044 14.0487 104.54 14.4807 104.908 15.0247C105.292 15.5687 105.484 16.2807 105.484 17.1607C105.484 17.9767 105.26 18.7367 104.812 19.4407C104.364 20.1287 103.676 20.6887 102.748 21.1207C101.836 21.5367 100.66 21.7447 99.22 21.7447ZM112.978 21.7207C111.794 21.7207 110.882 21.4007 110.242 20.7607C109.602 20.1207 109.282 19.2167 109.282 18.0487V6.21671H110.986V17.9527C110.986 18.6887 111.17 19.2567 111.538 19.6567C111.922 20.0567 112.466 20.2567 113.17 20.2567C113.922 20.2567 114.546 20.0407 115.042 19.6087L115.642 20.8327C115.306 21.1367 114.898 21.3607 114.418 21.5047C113.954 21.6487 113.474 21.7207 112.978 21.7207ZM107.026 10.4167V9.00071H114.826V10.4167H107.026ZM126.64 21.6007V18.8167L126.568 18.3607V13.7047C126.568 12.6327 126.264 11.8087 125.656 11.2327C125.064 10.6567 124.176 10.3687 122.992 10.3687C122.176 10.3687 121.4 10.5047 120.664 10.7767C119.928 11.0487 119.304 11.4087 118.792 11.8567L118.024 10.5847C118.664 10.0407 119.432 9.62471 120.328 9.33671C121.224 9.03271 122.168 8.88071 123.16 8.88071C124.792 8.88071 126.048 9.28871 126.928 10.1047C127.824 10.9047 128.272 12.1287 128.272 13.7767V21.6007H126.64ZM122.296 21.7207C121.352 21.7207 120.528 21.5687 119.824 21.2647C119.136 20.9447 118.608 20.5127 118.24 19.9687C117.872 19.4087 117.688 18.7687 117.688 18.0487C117.688 17.3927 117.84 16.8007 118.144 16.2727C118.464 15.7287 118.976 15.2967 119.68 14.9767C120.4 14.6407 121.36 14.4727 122.56 14.4727H126.904V15.7447H122.608C121.392 15.7447 120.544 15.9607 120.064 16.3927C119.6 16.8247 119.368 17.3607 119.368 18.0007C119.368 18.7207 119.648 19.2967 120.208 19.7287C120.768 20.1607 121.552 20.3767 122.56 20.3767C123.52 20.3767 124.344 20.1607 125.032 19.7287C125.736 19.2807 126.248 18.6407 126.568 17.8087L126.952 18.9847C126.632 19.8167 126.072 20.4807 125.272 20.9767C124.488 21.4727 123.496 21.7207 122.296 21.7207ZM134.244 18.3367L134.292 16.1527L142.14 9.00071H144.228L138.684 14.3047L137.724 15.1207L134.244 18.3367ZM132.9 21.6007V3.79271H134.604V21.6007H132.9ZM142.668 21.6007L137.412 15.0487L138.516 13.7287L144.756 21.6007H142.668ZM147.314 21.6007V9.00071H149.018V21.6007H147.314ZM148.178 6.21671C147.826 6.21671 147.53 6.09671 147.29 5.85671C147.05 5.61671 146.93 5.32871 146.93 4.99271C146.93 4.65671 147.05 4.37671 147.29 4.15271C147.53 3.91271 147.826 3.79271 148.178 3.79271C148.53 3.79271 148.826 3.90471 149.066 4.12871C149.306 4.35271 149.426 4.63271 149.426 4.96871C149.426 5.32071 149.306 5.61671 149.066 5.85671C148.842 6.09671 148.546 6.21671 148.178 6.21671ZM160.191 8.88071C161.215 8.88071 162.111 9.08071 162.879 9.48071C163.663 9.86471 164.271 10.4567 164.703 11.2567C165.151 12.0567 165.375 13.0647 165.375 14.2807V21.6007H163.671V14.4487C163.671 13.1207 163.335 12.1207 162.663 11.4487C162.007 10.7607 161.079 10.4167 159.879 10.4167C158.983 10.4167 158.199 10.6007 157.527 10.9687C156.871 11.3207 156.359 11.8407 155.991 12.5287C155.639 13.2007 155.463 14.0167 155.463 14.9767V21.6007H153.759V9.00071H155.391V12.4567L155.127 11.8087C155.527 10.8967 156.167 10.1847 157.047 9.67271C157.927 9.14471 158.975 8.88071 160.191 8.88071ZM175.354 26.3767C174.202 26.3767 173.098 26.2087 172.042 25.8727C170.986 25.5367 170.13 25.0567 169.474 24.4327L170.338 23.1367C170.93 23.6647 171.658 24.0807 172.522 24.3847C173.402 24.7047 174.33 24.8647 175.306 24.8647C176.906 24.8647 178.082 24.4887 178.834 23.7367C179.586 23.0007 179.962 21.8487 179.962 20.2807V17.1367L180.202 14.9767L180.034 12.8167V9.00071H181.666V20.0647C181.666 22.2407 181.13 23.8327 180.058 24.8407C179.002 25.8647 177.434 26.3767 175.354 26.3767ZM175.042 21.1207C173.842 21.1207 172.762 20.8647 171.802 20.3527C170.842 19.8247 170.082 19.0967 169.522 18.1687C168.978 17.2407 168.706 16.1767 168.706 14.9767C168.706 13.7767 168.978 12.7207 169.522 11.8087C170.082 10.8807 170.842 10.1607 171.802 9.64871C172.762 9.13671 173.842 8.88071 175.042 8.88071C176.162 8.88071 177.17 9.11271 178.066 9.57671C178.962 10.0407 179.674 10.7287 180.202 11.6407C180.73 12.5527 180.994 13.6647 180.994 14.9767C180.994 16.2887 180.73 17.4007 180.202 18.3127C179.674 19.2247 178.962 19.9207 178.066 20.4007C177.17 20.8807 176.162 21.1207 175.042 21.1207ZM175.21 19.6087C176.138 19.6087 176.962 19.4167 177.682 19.0327C178.402 18.6327 178.97 18.0887 179.386 17.4007C179.802 16.6967 180.01 15.8887 180.01 14.9767C180.01 14.0647 179.802 13.2647 179.386 12.5767C178.97 11.8887 178.402 11.3527 177.682 10.9687C176.962 10.5687 176.138 10.3687 175.21 10.3687C174.298 10.3687 173.474 10.5687 172.738 10.9687C172.018 11.3527 171.45 11.8887 171.034 12.5767C170.634 13.2647 170.434 14.0647 170.434 14.9767C170.434 15.8887 170.634 16.6967 171.034 17.4007C171.45 18.0887 172.018 18.6327 172.738 19.0327C173.474 19.4167 174.298 19.6087 175.21 19.6087Z" fill="black"/>
<defs>
<clipPath id="clip0_8914_17191">
<rect width="85.5707" height="24.2014" fill="white" transform="translate(0 0.399292)"/>
</clipPath>
</defs>
</svg>
