<svg width="186" height="26" viewBox="0 0 186 26" fill="none" xmlns="http://www.w3.org/2000/svg">
<g clip-path="url(#clip0_313_143)">
<path d="M6.48873 2.3532L10.3237 0.138563C10.4329 0.0755573 10.5683 0.0755573 10.6775 0.138563L20.7846 5.97391C20.8938 6.03691 20.9611 6.15347 20.9621 6.27948L20.9758 10.2929C20.9758 10.42 20.9085 10.5376 20.7983 10.6006L16.9686 12.8121C16.7334 12.9486 16.4383 12.7785 16.4373 12.5065L16.4247 8.9047C16.4247 8.77869 16.3564 8.66213 16.2472 8.59913L6.48873 2.96645C6.25246 2.82994 6.25246 2.48971 6.48873 2.3532Z" fill="white"/>
<path d="M4.01134 20.5322L0.177465 18.3186C0.0672057 18.2556 0 18.139 0 18.012V6.34127C0 6.21526 0.0672057 6.0987 0.176415 6.03465L3.64591 4.01533C3.75617 3.95127 3.89163 3.95127 4.00084 4.01533L7.83051 6.22681C8.06573 6.36333 8.06678 6.7025 7.83156 6.84007L4.7191 8.65147C4.60989 8.71447 4.54268 8.83103 4.54268 8.95809V20.2266C4.54268 20.4996 4.24761 20.6697 4.01134 20.5332V20.5322Z" fill="white"/>
<path d="M20.9758 13.5838V18.011C20.9758 18.1381 20.9086 18.2546 20.7984 18.3176L10.6912 24.153C10.582 24.216 10.4476 24.216 10.3384 24.153L6.85527 22.1578C6.74501 22.0948 6.67676 21.9772 6.67676 21.8501V17.4282C6.67676 17.1562 6.97078 16.9861 7.20705 17.1205L10.3321 18.9109C10.4413 18.9739 10.5757 18.9729 10.6849 18.9109L20.4434 13.2762C20.6797 13.1396 20.9748 13.3098 20.9748 13.5828L20.9758 13.5838Z" fill="white"/>
<path d="M53.7507 6.17872H49.8359C49.6658 6.17872 49.5293 6.31628 49.5293 6.4864V13.9326C49.5293 14.885 49.3749 15.682 49.0652 16.3226C48.7554 16.9442 48.3301 17.4105 47.7883 17.7213C47.2464 18.0122 46.6269 18.1592 45.9306 18.1592C44.9236 18.1592 44.1402 17.8578 43.5795 17.2561C43.0377 16.6345 42.7667 15.6715 42.7667 14.3705V6.48745C42.7667 6.31733 42.6292 6.17977 42.4601 6.17977H39.6165C39.5934 6.17557 39.5703 6.17347 39.5472 6.17347H33.883V5.85845C33.883 5.10028 34.0573 4.53743 34.4059 4.1678C34.7734 3.77927 35.2869 3.585 35.9443 3.585C36.2929 3.585 36.6216 3.63331 36.9314 3.73097C37.1225 3.79187 37.3105 3.87063 37.4732 3.95674C37.636 4.04284 37.8376 3.96094 37.8996 3.78662L38.8782 1.07844C38.9287 0.937729 38.8719 0.780216 38.7428 0.70566C38.3606 0.484091 37.9122 0.317127 37.3955 0.203717C36.7959 0.0682558 36.1669 0 35.5085 0C33.5742 0 32.0842 0.534495 31.0383 1.60349C29.9934 2.65252 29.4705 4.06174 29.4705 5.83009V6.17347H27.4249C27.2244 6.17347 27.0605 6.31103 27.0605 6.48115V9.36259C27.0605 9.53271 27.2233 9.67027 27.4249 9.67027H29.4705V21.552C29.4705 21.7221 29.6081 21.8597 29.7771 21.8597H33.6908C33.8599 21.8597 33.9974 21.7221 33.9974 21.552V9.67027H38.2377V15.0394C38.2377 16.6523 38.5181 17.9838 39.0799 19.0329C39.6417 20.063 40.425 20.8306 41.431 21.3357C42.4569 21.8408 43.6183 22.0939 44.9142 22.0939C46.1144 22.0939 47.217 21.8219 48.223 21.2769C48.8215 20.9482 49.334 20.5282 49.7614 20.0199V21.552C49.7614 21.7221 49.8989 21.8597 50.068 21.8597H53.7507C53.9208 21.8597 54.0573 21.7221 54.0573 21.552V6.48745C54.0573 6.31733 53.9197 6.17977 53.7507 6.17977V6.17872Z" fill="white"/>
<path d="M66.9313 13.6395C66.3894 13.3088 65.7793 13.0567 65.102 12.8814C64.4258 12.7071 63.7474 12.58 63.0701 12.5023C62.4128 12.4046 61.8027 12.2986 61.2409 12.182C60.6801 12.0655 60.2244 11.91 59.8768 11.7158C59.5471 11.5215 59.3833 11.2306 59.3833 10.841C59.3833 10.4137 59.6153 10.064 60.0805 9.79201C60.5447 9.52003 61.2808 9.38457 62.2867 9.38457C63.0029 9.38457 63.738 9.47173 64.493 9.6471C65.1703 9.78256 65.8392 10.0304 66.5018 10.3895C66.6583 10.4735 66.8515 10.4116 66.9271 10.2509L68.1767 7.57317C68.245 7.42721 68.1893 7.25079 68.0486 7.17414C67.3576 6.79715 66.5218 6.50418 65.5389 6.29731C64.4363 6.06419 63.3526 5.94763 62.2878 5.94763C60.7788 5.94763 59.482 6.1713 58.3983 6.61759C57.3146 7.04602 56.4829 7.63827 55.9022 8.39644C55.3415 9.1546 55.06 10.0283 55.06 11.0196C55.06 11.9132 55.2249 12.6419 55.5536 13.2058C55.9022 13.7687 56.3569 14.216 56.9176 14.5468C57.4794 14.8776 58.0979 15.1296 58.7752 15.305C59.4526 15.4604 60.1204 15.5864 60.7778 15.6841C61.4551 15.7817 62.0746 15.8783 62.6354 15.9749C63.1961 16.0726 63.6414 16.2186 63.9711 16.4128C64.3197 16.5882 64.494 16.8602 64.494 17.2287C64.494 17.6761 64.2714 18.0258 63.8262 18.2778C63.4009 18.5298 62.6648 18.6569 61.6199 18.6569C60.6717 18.6569 59.7046 18.5214 58.7175 18.2494C57.8764 17.9964 57.1308 17.6845 56.4798 17.3138C56.3233 17.2245 56.1248 17.2875 56.0492 17.4514L54.7954 20.1637C54.7293 20.3065 54.7828 20.4756 54.9162 20.5575C55.604 20.9776 56.4934 21.3356 57.5845 21.6307C58.8225 21.9415 60.1099 22.0969 61.4446 22.0969V22.0948C63.0113 22.0948 64.3376 21.8817 65.4213 21.4543C66.5239 21.0269 67.366 20.4441 67.9467 19.7059C68.5274 18.9488 68.8173 18.0835 68.8173 17.1122C68.8173 16.2186 68.6429 15.4992 68.2943 14.9553C67.9457 14.3914 67.491 13.9546 66.9302 13.6437L66.9313 13.6395Z" fill="white"/>
<path d="M84.4971 9.73643C83.7809 8.51202 82.8043 7.57954 81.5652 6.93794C80.3461 6.27743 79.0303 5.94666 77.4436 5.94666C75.857 5.94666 74.4341 6.29634 73.1771 6.99569C71.9191 7.6751 70.9226 8.62753 70.1875 9.85194C69.4714 11.0564 69.1133 12.4656 69.1133 14.0197C69.1133 15.5739 69.4808 16.9642 70.2159 18.1875C70.9509 19.392 71.9863 20.3444 73.321 21.0438C74.6756 21.7431 76.2423 22.0928 78.0233 22.0928V22.0949C79.4367 22.0949 80.6853 21.8807 81.7679 21.4544C82.756 21.0469 83.5909 20.4851 84.2734 19.7711C84.3847 19.6545 84.3847 19.4697 84.2755 19.35L82.2646 17.1606C82.1512 17.0377 81.9622 17.0293 81.8351 17.1396C81.372 17.5438 80.8659 17.8547 80.3156 18.072C79.6961 18.3241 78.9705 18.4511 78.1388 18.4511C77.2105 18.4511 76.3978 18.2863 75.7005 17.9555C75.0232 17.6058 74.4908 17.1101 74.1044 16.4696C73.9038 16.1105 73.761 15.7209 73.6696 15.3029H85.2048C85.3624 15.3029 85.4947 15.1822 85.5094 15.0247C85.5199 14.9165 85.5304 14.8042 85.5398 14.6907C85.5598 14.4576 85.5692 14.2539 85.5692 14.0785C85.5692 12.3879 85.2111 10.9409 84.495 9.73538L84.4971 9.73643ZM75.4117 9.91179C76.0113 9.56211 76.6991 9.38675 77.473 9.38675C78.247 9.38675 78.9243 9.56211 79.505 9.91179C80.0857 10.2415 80.5404 10.7088 80.869 11.3105C81.0874 11.7095 81.2313 12.1569 81.3048 12.6504H73.6171C73.6927 12.1653 73.8355 11.7274 74.0476 11.3389C74.3774 10.7172 74.831 10.2415 75.4117 9.91074V9.91179Z" fill="white"/>
</g>
<path d="M99.2201 21.3454C97.9721 21.3454 96.7721 21.1454 95.6201 20.7454C94.4841 20.3294 93.6041 19.8014 92.9801 19.1614L93.6761 17.7934C94.2681 18.3694 95.0601 18.8574 96.0521 19.2574C97.0601 19.6414 98.1161 19.8334 99.2201 19.8334C100.276 19.8334 101.132 19.7054 101.788 19.4494C102.46 19.1774 102.948 18.8174 103.252 18.3694C103.572 17.9214 103.732 17.4254 103.732 16.8814C103.732 16.2254 103.54 15.6974 103.156 15.2974C102.788 14.8974 102.3 14.5854 101.692 14.3614C101.084 14.1214 100.412 13.9134 99.6761 13.7374C98.9401 13.5614 98.2041 13.3774 97.4681 13.1854C96.7321 12.9774 96.0521 12.7054 95.4281 12.3694C94.8201 12.0334 94.3241 11.5934 93.9401 11.0494C93.5721 10.4894 93.3881 9.76142 93.3881 8.86542C93.3881 8.03342 93.6041 7.27342 94.0361 6.58542C94.4841 5.88141 95.1641 5.32141 96.0761 4.90542C96.9881 4.47342 98.1561 4.25742 99.5801 4.25742C100.524 4.25742 101.46 4.39342 102.388 4.66542C103.316 4.92142 104.116 5.28141 104.788 5.74541L104.188 7.16142C103.468 6.68142 102.7 6.32942 101.884 6.10542C101.084 5.88142 100.308 5.76942 99.5561 5.76942C98.5481 5.76942 97.7161 5.90542 97.0601 6.17741C96.4041 6.44942 95.9161 6.81742 95.5961 7.28141C95.2921 7.72941 95.1401 8.24142 95.1401 8.81742C95.1401 9.47342 95.3241 10.0014 95.6921 10.4014C96.0761 10.8014 96.5721 11.1134 97.1801 11.3374C97.8041 11.5614 98.4841 11.7614 99.2201 11.9374C99.9561 12.1134 100.684 12.3054 101.404 12.5134C102.14 12.7214 102.812 12.9934 103.42 13.3294C104.044 13.6494 104.54 14.0814 104.908 14.6254C105.292 15.1694 105.484 15.8814 105.484 16.7614C105.484 17.5774 105.26 18.3374 104.812 19.0414C104.364 19.7294 103.676 20.2894 102.748 20.7214C101.836 21.1374 100.66 21.3454 99.2201 21.3454ZM112.978 21.3214C111.794 21.3214 110.882 21.0014 110.242 20.3614C109.602 19.7214 109.282 18.8174 109.282 17.6494V5.81742H110.986V17.5534C110.986 18.2894 111.17 18.8574 111.538 19.2574C111.922 19.6574 112.466 19.8574 113.17 19.8574C113.922 19.8574 114.546 19.6414 115.042 19.2094L115.642 20.4334C115.306 20.7374 114.898 20.9614 114.418 21.1054C113.954 21.2494 113.474 21.3214 112.978 21.3214ZM107.026 10.0174V8.60142H114.826V10.0174H107.026ZM126.64 21.2014V18.4174L126.568 17.9614V13.3054C126.568 12.2334 126.264 11.4094 125.656 10.8334C125.064 10.2574 124.176 9.96942 122.992 9.96942C122.176 9.96942 121.4 10.1054 120.664 10.3774C119.928 10.6494 119.304 11.0094 118.792 11.4574L118.024 10.1854C118.664 9.64142 119.432 9.22542 120.328 8.93742C121.224 8.63342 122.168 8.48142 123.16 8.48142C124.792 8.48142 126.048 8.88942 126.928 9.70542C127.824 10.5054 128.272 11.7294 128.272 13.3774V21.2014H126.64ZM122.296 21.3214C121.352 21.3214 120.528 21.1694 119.824 20.8654C119.136 20.5454 118.608 20.1134 118.24 19.5694C117.872 19.0094 117.688 18.3694 117.688 17.6494C117.688 16.9934 117.84 16.4014 118.144 15.8734C118.464 15.3294 118.976 14.8974 119.68 14.5774C120.4 14.2414 121.36 14.0734 122.56 14.0734H126.904V15.3454H122.608C121.392 15.3454 120.544 15.5614 120.064 15.9934C119.6 16.4254 119.368 16.9614 119.368 17.6014C119.368 18.3214 119.648 18.8974 120.208 19.3294C120.768 19.7614 121.552 19.9774 122.56 19.9774C123.52 19.9774 124.344 19.7614 125.032 19.3294C125.736 18.8814 126.248 18.2414 126.568 17.4094L126.952 18.5854C126.632 19.4174 126.072 20.0814 125.272 20.5774C124.488 21.0734 123.496 21.3214 122.296 21.3214ZM134.244 17.9374L134.292 15.7534L142.14 8.60142H144.228L138.684 13.9054L137.724 14.7214L134.244 17.9374ZM132.9 21.2014V3.39341H134.604V21.2014H132.9ZM142.668 21.2014L137.412 14.6494L138.516 13.3294L144.756 21.2014H142.668ZM147.314 21.2014V8.60142H149.018V21.2014H147.314ZM148.178 5.81742C147.826 5.81742 147.53 5.69742 147.29 5.45742C147.05 5.21742 146.93 4.92942 146.93 4.59342C146.93 4.25741 147.05 3.97741 147.29 3.75341C147.53 3.51341 147.826 3.39341 148.178 3.39341C148.53 3.39341 148.826 3.50541 149.066 3.72941C149.306 3.95341 149.426 4.23342 149.426 4.56942C149.426 4.92142 149.306 5.21742 149.066 5.45742C148.842 5.69742 148.546 5.81742 148.178 5.81742ZM160.191 8.48142C161.215 8.48142 162.111 8.68142 162.879 9.08142C163.663 9.46542 164.271 10.0574 164.703 10.8574C165.151 11.6574 165.375 12.6654 165.375 13.8814V21.2014H163.671V14.0494C163.671 12.7214 163.335 11.7214 162.663 11.0494C162.007 10.3614 161.079 10.0174 159.879 10.0174C158.983 10.0174 158.199 10.2014 157.527 10.5694C156.871 10.9214 156.359 11.4414 155.991 12.1294C155.639 12.8014 155.463 13.6174 155.463 14.5774V21.2014H153.759V8.60142H155.391V12.0574L155.127 11.4094C155.527 10.4974 156.167 9.78542 157.047 9.27342C157.927 8.74542 158.975 8.48142 160.191 8.48142ZM175.354 25.9774C174.202 25.9774 173.098 25.8094 172.042 25.4734C170.986 25.1374 170.13 24.6574 169.474 24.0334L170.338 22.7374C170.93 23.2654 171.658 23.6814 172.522 23.9854C173.402 24.3054 174.33 24.4654 175.306 24.4654C176.906 24.4654 178.082 24.0894 178.834 23.3374C179.586 22.6014 179.962 21.4494 179.962 19.8814V16.7374L180.202 14.5774L180.034 12.4174V8.60142H181.666V19.6654C181.666 21.8414 181.13 23.4334 180.058 24.4414C179.002 25.4654 177.434 25.9774 175.354 25.9774ZM175.042 20.7214C173.842 20.7214 172.762 20.4654 171.802 19.9534C170.842 19.4254 170.082 18.6974 169.522 17.7694C168.978 16.8414 168.706 15.7774 168.706 14.5774C168.706 13.3774 168.978 12.3214 169.522 11.4094C170.082 10.4814 170.842 9.76142 171.802 9.24942C172.762 8.73742 173.842 8.48142 175.042 8.48142C176.162 8.48142 177.17 8.71342 178.066 9.17741C178.962 9.64142 179.674 10.3294 180.202 11.2414C180.73 12.1534 180.994 13.2654 180.994 14.5774C180.994 15.8894 180.73 17.0014 180.202 17.9134C179.674 18.8254 178.962 19.5214 178.066 20.0014C177.17 20.4814 176.162 20.7214 175.042 20.7214ZM175.21 19.2094C176.138 19.2094 176.962 19.0174 177.682 18.6334C178.402 18.2334 178.97 17.6894 179.386 17.0014C179.802 16.2974 180.01 15.4894 180.01 14.5774C180.01 13.6654 179.802 12.8654 179.386 12.1774C178.97 11.4894 178.402 10.9534 177.682 10.5694C176.962 10.1694 176.138 9.96942 175.21 9.96942C174.298 9.96942 173.474 10.1694 172.738 10.5694C172.018 10.9534 171.45 11.4894 171.034 12.1774C170.634 12.8654 170.434 13.6654 170.434 14.5774C170.434 15.4894 170.634 16.2974 171.034 17.0014C171.45 17.6894 172.018 18.2334 172.738 18.6334C173.474 19.0174 174.298 19.2094 175.21 19.2094Z" fill="white"/>
<defs>
<clipPath id="clip0_313_143">
<rect width="85.5707" height="24.2014" fill="white"/>
</clipPath>
</defs>
</svg>
