<?xml version="1.0" standalone="no"?>
<!DOCTYPE svg PUBLIC "-//W3C//DTD SVG 20010904//EN"
 "http://www.w3.org/TR/2001/REC-SVG-20010904/DTD/svg10.dtd">
<svg version="1.0" xmlns="http://www.w3.org/2000/svg"
 width="399.000000pt" height="475.000000pt" viewBox="0 0 399.000000 475.000000"
 preserveAspectRatio="xMidYMid meet">

<g transform="translate(0.000000,475.000000) scale(0.100000,-0.100000)"
fill="#000000" stroke="none">
<path d="M1945 4639 c-122 -66 -703 -405 -722 -422 -25 -23 -30 -64 -10 -89 6
-8 428 -255 937 -548 509 -293 933 -540 942 -549 15 -14 17 -59 23 -386 8
-405 8 -405 67 -405 32 0 749 407 781 442 16 19 17 53 17 412 0 290 -3 397
-13 415 -8 17 -305 193 -987 587 -536 310 -980 564 -985 564 -6 0 -28 -10 -50
-21z"/>
<path d="M375 3729 c-181 -105 -340 -201 -352 -212 l-23 -20 0 -1132 0 -1132
22 -20 c36 -32 754 -443 775 -443 11 0 29 9 41 20 l22 21 0 1092 c0 620 4
1098 9 1106 5 8 150 96 322 197 186 108 317 190 322 202 24 53 16 59 -380 288
-207 120 -388 220 -402 221 -19 3 -114 -47 -356 -188z"/>
<path d="M3880 2157 c-14 -7 -439 -253 -946 -545 -507 -293 -930 -532 -941
-532 -11 0 -162 81 -334 180 -173 99 -319 180 -325 180 -6 0 -23 -9 -38 -21
l-26 -20 0 -448 c0 -343 3 -451 13 -463 20 -25 687 -400 711 -401 28 0 1932
1096 1964 1130 l22 24 0 438 c0 404 -1 440 -17 459 -24 28 -53 34 -83 19z"/>
</g>
</svg>
