<svg width="27" height="26" viewBox="0 0 27 26" fill="none" xmlns="http://www.w3.org/2000/svg">
<path fill-rule="evenodd" clip-rule="evenodd" d="M13.4416 0C6.07926 0 0.108276 5.94868 0.108276 13.2873C0.108276 19.1579 3.92916 24.1377 9.2266 25.895C9.89275 26.0183 10.1375 25.6069 10.1375 25.256C10.1375 24.9391 10.125 23.8926 10.1193 22.7822C6.41035 23.5859 5.62777 21.214 5.62777 21.214C5.02068 19.6786 4.14723 19.27 4.14723 19.27C2.93702 18.4454 4.2381 18.4624 4.2381 18.4624C5.57723 18.5563 6.282 19.832 6.282 19.832C7.4712 21.8631 9.40095 21.2757 10.1619 20.9361C10.2818 20.0781 10.6271 19.4913 11.0087 19.1596C8.04706 18.824 4.93379 17.6842 4.93379 12.5929C4.93379 11.1424 5.45513 9.95729 6.30755 9.02631C6.16955 8.69183 5.71296 7.34091 6.43704 5.51007C6.43704 5.51007 7.55638 5.15296 10.1046 6.87287C11.1683 6.57802 12.3086 6.4303 13.4416 6.42521C14.5746 6.4303 15.7161 6.57802 16.7815 6.87287C19.3268 5.15296 20.4445 5.51007 20.4445 5.51007C21.1703 7.34091 20.7137 8.69183 20.5757 9.02631C21.4304 9.95729 21.9477 11.1424 21.9477 12.5929C21.9477 17.6966 18.8288 18.82 15.8598 19.1489C16.3379 19.5609 16.7639 20.3696 16.7639 21.6096C16.7639 23.3872 16.7485 24.8185 16.7485 25.256C16.7485 25.6097 16.9888 26.0234 17.6646 25.8933C22.9592 24.1349 26.7749 19.1556 26.7749 13.2873C26.7749 5.94868 20.8051 0 13.4416 0Z" fill="black"/>
</svg>
