<svg width="15" height="16" viewBox="0 0 15 16" fill="none" xmlns="http://www.w3.org/2000/svg">
<path d="M14.5971 6.52494C14.5967 6.5246 14.5964 6.52426 14.596 6.52391L8.4766 0.404704C8.21577 0.143752 7.86897 0 7.50009 0C7.13121 0 6.78442 0.143638 6.52347 0.40459L0.407238 6.52071C0.405178 6.52277 0.403117 6.52494 0.401057 6.527C-0.134581 7.06573 -0.133665 7.93981 0.40369 8.47716C0.64919 8.72278 0.973435 8.86504 1.32011 8.87992C1.33419 8.88129 1.34838 8.88198 1.36269 8.88198H1.60659V13.3853C1.60659 14.2765 2.33164 15.0015 3.223 15.0015H5.61712C5.85976 15.0015 6.05662 14.8048 6.05662 14.562V11.0314C6.05662 10.6247 6.38739 10.294 6.79404 10.294H8.20615C8.6128 10.294 8.94357 10.6247 8.94357 11.0314V14.562C8.94357 14.8048 9.14031 15.0015 9.38307 15.0015H11.7772C12.6685 15.0015 13.3936 14.2765 13.3936 13.3853V8.88198H13.6198C13.9885 8.88198 14.3353 8.73834 14.5964 8.47739C15.1343 7.93912 15.1345 7.06356 14.5971 6.52494Z" fill="#D1D1D1"/>
</svg>
