<svg width="12" height="12" viewBox="0 0 12 12" fill="none" xmlns="http://www.w3.org/2000/svg">
<g clip-path="url(#clip0_62_17546)">
<path d="M6 0C2.6916 0 0 2.69164 0 6.00004C0 9.30844 2.6916 12 6 12C9.3084 12 12 9.30844 12 6.00004C12 2.69164 9.3084 0 6 0ZM6 10.9091C3.29309 10.9091 1.09091 8.70691 1.09091 6.00004C1.09091 3.29316 3.29309 1.09091 6 1.09091C8.70691 1.09091 10.9091 3.29316 10.9091 6.00004C10.9091 8.70691 8.70687 10.9091 6 10.9091Z" fill="black"/>
<path d="M5.99983 2.54541C5.59889 2.54541 5.27271 2.87181 5.27271 3.27301C5.27271 3.67385 5.59889 3.99996 5.99983 3.99996C6.40078 3.99996 6.72696 3.67385 6.72696 3.27301C6.72696 2.87181 6.40078 2.54541 5.99983 2.54541Z" fill="black"/>
<path d="M6.00004 5.09094C5.69881 5.09094 5.45459 5.33516 5.45459 5.6364V8.90912C5.45459 9.21036 5.69881 9.45458 6.00004 9.45458C6.30128 9.45458 6.5455 9.21036 6.5455 8.90912V5.6364C6.5455 5.33516 6.30128 5.09094 6.00004 5.09094Z" fill="black"/>
</g>
<defs>
<clipPath id="clip0_62_17546">
<rect width="12" height="12" fill="white"/>
</clipPath>
</defs>
</svg>
