<svg width="17" height="18" viewBox="0 0 17 18" fill="none" xmlns="http://www.w3.org/2000/svg">
<path d="M6.76204 11.0662L4.00716 11.0662C4.00716 11.0662 4.00713 11.0662 4.0071 11.0662C4.0071 11.0662 4.00707 11.0662 4.00703 11.0662C2.86779 11.0662 1.94089 10.1394 1.94089 9.00007C1.94089 8.44812 2.15585 7.92927 2.54607 7.53904C2.93627 7.14885 3.45506 6.93395 4.0069 6.93385C4.00697 6.93385 4.00703 6.93385 4.0071 6.93385L6.76197 6.93382C7.14233 6.93379 7.4507 6.62541 7.45067 6.24506C7.45067 5.86474 7.14229 5.55637 6.76194 5.55634L4.00707 5.55637C4.00687 5.55637 4.00664 5.5564 4.00645 5.5564C3.08688 5.55656 2.22231 5.91477 1.57206 6.56503C0.921643 7.21544 0.563433 8.0802 0.563433 9.00007C0.563466 9.9495 0.949631 10.8104 1.5732 11.434C2.19676 12.0575 3.05769 12.4437 4.00707 12.4437C4.0071 12.4437 4.00716 12.4437 4.00716 12.4437L6.76204 12.4436C7.14236 12.4436 7.45073 12.1353 7.45073 11.7549C7.45076 11.3746 7.14242 11.0662 6.76204 11.0662Z" fill="#4D4D4D"/>
<path d="M14.707 11.4351C15.3574 10.7847 15.7156 9.91992 15.7156 9.00006C15.7156 7.10121 14.1707 5.55642 12.272 5.55642C12.2719 5.55646 12.2718 5.55642 12.2717 5.55646L9.51695 5.55642C9.1366 5.55639 8.82819 5.8648 8.82823 6.24515C8.82823 6.43541 8.9053 6.60755 9.02994 6.73219C9.15455 6.8568 9.32679 6.93391 9.51695 6.93388L12.2717 6.93391C12.2718 6.93388 12.2719 6.93391 12.272 6.93391C13.4112 6.93391 14.3381 7.86075 14.3382 9.00006C14.3381 9.55197 14.1232 10.0709 13.733 10.4611C13.3428 10.8513 12.824 11.0662 12.2722 11.0663L12.272 11.0663L9.51708 11.0663C9.13676 11.0663 8.82839 11.3747 8.82839 11.7551C8.82839 11.9453 8.90546 12.1175 9.03007 12.2421C9.15472 12.3667 9.32692 12.4438 9.51711 12.4438L12.272 12.4438C12.2722 12.4438 12.2724 12.4437 12.2726 12.4437C13.1922 12.4436 14.0568 12.0854 14.707 11.4351Z" fill="#4D4D4D"/>
<path d="M4.69604 9.00002C4.69604 9.19021 4.77312 9.36241 4.89773 9.48702C5.02237 9.61167 5.19457 9.68874 5.38477 9.68874H10.8946C11.2749 9.68877 11.5833 9.3804 11.5833 9.00002C11.5833 8.61969 11.2749 8.31132 10.8946 8.31129L5.3848 8.31126C5.00438 8.31129 4.69601 8.61966 4.69604 9.00002Z" fill="#4D4D4D"/>
</svg>
