<svg width="31" height="17" viewBox="0 0 31 17" fill="none" xmlns="http://www.w3.org/2000/svg">
<path d="M8.55191 16.9959C4.05847 16.9852 0.491323 13.3934 0.500016 8.88849C0.508643 4.47348 4.16083 0.893935 8.62835 0.922008C13.1214 0.950212 16.6629 4.54497 16.6484 9.062C16.6341 13.4405 12.9951 17.0064 8.55191 16.9959Z" fill="black"/>
<path d="M26.1131 8.95889C26.1131 13.194 24.2182 16.6272 21.8808 16.6272C19.5434 16.6272 17.6484 13.194 17.6484 8.95889C17.6484 4.72376 19.5434 1.29056 21.8808 1.29056C24.2182 1.29056 26.1131 4.72376 26.1131 8.95889Z" fill="black"/>
<path d="M30.1083 8.95889C30.1083 12.6915 29.4379 15.7174 28.6107 15.7174C27.7835 15.7174 27.1131 12.6915 27.1131 8.95889C27.1131 5.22623 27.7835 2.20036 28.6107 2.20036C29.4379 2.20036 30.1083 5.22623 30.1083 8.95889Z" fill="black"/>
</svg>
