<svg width="305" height="245" viewBox="0 0 305 245" fill="none" xmlns="http://www.w3.org/2000/svg">
<rect x="246.164" y="103.273" width="46.1791" height="137.698" fill="url(#paint0_linear_8874_36026)"/>
<path d="M278.551 67.1234L278.551 67.1234L278.556 67.1245L285.137 68.372L261.771 133.266L255.129 130.767C255.128 130.767 255.128 130.767 255.127 130.766C250.396 128.934 247.205 123.908 246.055 117.001C244.907 110.103 245.811 101.395 249.209 92.3414C252.61 83.283 257.293 76.4149 262.455 72.0959C267.616 67.7779 273.238 66.0195 278.551 67.1234Z" fill="url(#paint1_linear_8874_36026)" stroke="#4A4A4A" stroke-width="0.669816"/>
<path d="M291.544 107.266C288.204 116.163 283.206 123.582 277.87 128.31C272.519 133.05 266.909 135.023 262.297 133.238C257.678 131.45 254.585 126.159 253.497 118.989C252.413 111.838 253.344 102.909 256.682 94.0163C260.02 85.1242 265.172 77.8512 270.662 73.2673C276.165 68.672 281.935 66.8329 286.555 68.6211C291.172 70.4083 294.109 75.5529 295.04 82.5752C295.97 89.582 294.884 98.369 291.544 107.266Z" fill="#B4F9BA" stroke="#4A4A4A" stroke-width="0.669816"/>
<rect x="10.2344" y="133.5" width="46.1791" height="107.471" fill="url(#paint2_linear_8874_36026)"/>
<rect x="125.258" y="43.6602" width="46.1791" height="200.669" fill="url(#paint3_linear_8874_36026)"/>
<path d="M156.801 8.34993L156.801 8.34998L156.807 8.35107L163.387 9.59855L140.021 74.4926L133.379 71.9935C133.378 71.9933 133.378 71.9931 133.378 71.993C128.646 70.1607 125.455 65.1347 124.305 58.2279C123.157 51.3299 124.061 42.6215 127.459 33.5679C130.86 24.5095 135.543 17.6415 140.705 13.3225C145.866 9.00447 151.489 7.24607 156.801 8.34993Z" fill="url(#paint4_linear_8874_36026)" stroke="#4A4A4A" stroke-width="0.669816"/>
<path d="M169.794 48.4925C166.454 57.3895 161.456 64.8084 156.12 69.5361C150.769 74.2763 145.159 76.2496 140.547 74.4642C135.928 72.6763 132.835 67.3851 131.748 60.2156C130.663 53.0642 131.594 44.1351 134.932 35.2429C138.27 26.3507 143.422 19.0777 148.912 14.4938C154.416 9.89853 160.185 8.05942 164.805 9.84766C169.422 11.6349 172.359 16.7795 173.291 23.8018C174.22 30.8085 173.134 39.5955 169.794 48.4925Z" fill="#B4F9BA" stroke="#4A4A4A" stroke-width="0.669816"/>
<path d="M42.6134 95.6701L42.6134 95.6702L42.6191 95.6713L49.2 96.9187L25.8335 161.813L19.1915 159.314C19.191 159.314 19.1905 159.313 19.19 159.313C14.459 157.481 11.2679 152.455 10.1178 145.548C8.96919 138.65 9.87324 129.942 13.272 120.888C16.6725 111.83 21.3552 104.962 26.5176 100.643C31.6787 96.3247 37.301 94.5663 42.6134 95.6701Z" fill="url(#paint5_linear_8874_36026)" stroke="#4A4A4A" stroke-width="0.669816"/>
<path d="M55.6067 135.813C52.2668 144.71 47.2686 152.129 41.9323 156.856C36.5819 161.597 30.9712 163.57 26.3592 161.784C21.7405 159.996 18.6474 154.705 17.56 147.536C16.4754 140.384 17.4065 131.455 20.7446 122.563C24.0827 113.671 29.2342 106.398 34.7243 101.814C40.228 97.2187 45.998 95.3796 50.6174 97.1678C55.2342 98.955 58.1715 104.1 59.103 111.122C60.0325 118.129 58.9466 126.916 55.6067 135.813Z" fill="#B4F9BA" stroke="#4A4A4A" stroke-width="0.669816"/>
<defs>
<linearGradient id="paint0_linear_8874_36026" x1="269.254" y1="103.273" x2="269.254" y2="240.971" gradientUnits="userSpaceOnUse">
<stop stop-color="#B4F9BA"/>
<stop offset="1" stop-color="#B4F9BA" stop-opacity="0"/>
</linearGradient>
<linearGradient id="paint1_linear_8874_36026" x1="272.949" y1="63.2238" x2="247.696" y2="128.459" gradientUnits="userSpaceOnUse">
<stop stop-color="white"/>
<stop offset="1" stop-color="#D9D9D9"/>
</linearGradient>
<linearGradient id="paint2_linear_8874_36026" x1="33.3239" y1="133.5" x2="33.3239" y2="240.971" gradientUnits="userSpaceOnUse">
<stop stop-color="#B4F9BA"/>
<stop offset="1" stop-color="#B4F9BA" stop-opacity="0"/>
</linearGradient>
<linearGradient id="paint3_linear_8874_36026" x1="148.347" y1="43.6602" x2="148.347" y2="244.329" gradientUnits="userSpaceOnUse">
<stop stop-color="#B4F9BA"/>
<stop offset="1" stop-color="#B4F9BA" stop-opacity="0"/>
</linearGradient>
<linearGradient id="paint4_linear_8874_36026" x1="151.199" y1="4.45038" x2="125.946" y2="69.686" gradientUnits="userSpaceOnUse">
<stop stop-color="white"/>
<stop offset="1" stop-color="#D9D9D9"/>
</linearGradient>
<linearGradient id="paint5_linear_8874_36026" x1="37.0119" y1="91.7706" x2="11.7584" y2="157.006" gradientUnits="userSpaceOnUse">
<stop stop-color="white"/>
<stop offset="1" stop-color="#D9D9D9"/>
</linearGradient>
</defs>
</svg>
