<svg width="4" height="7" viewBox="0 0 4 7" fill="none" xmlns="http://www.w3.org/2000/svg">
<path d="M3.73994 3.48585C3.7403 3.54735 3.72851 3.60831 3.70526 3.66524C3.68201 3.72216 3.64775 3.77394 3.60444 3.8176L0.800916 6.62113C0.712931 6.70912 0.593597 6.75854 0.469166 6.75854C0.344735 6.75854 0.225401 6.70912 0.137416 6.62113C0.0494299 6.53314 -1.50689e-08 6.41381 -2.05079e-08 6.28938C-2.59469e-08 6.16495 0.0494298 6.04561 0.137416 5.95763L2.61386 3.48585L0.142088 1.01408C0.0655394 0.924694 0.0255394 0.809714 0.0300816 0.692117C0.0346239 0.574521 0.0833739 0.462968 0.166589 0.379753C0.249805 0.296537 0.361356 0.247788 0.478953 0.243246C0.59655 0.238704 0.71153 0.278703 0.800916 0.355252L3.60444 3.15878C3.69076 3.24581 3.73943 3.36327 3.73994 3.48585Z" fill="#D1D1D1"/>
</svg>
