<svg width="13" height="12" viewBox="0 0 13 12" fill="none" xmlns="http://www.w3.org/2000/svg">
<path d="M12.2452 10.7861L9.93892 8.4798C10.6379 7.5648 11.0212 6.45496 11.0214 5.28383C11.0214 3.87251 10.4717 2.54556 9.47359 1.54761C8.47564 0.549669 7.14887 0 5.73737 0C4.32605 0 2.9991 0.549669 2.00115 1.54761C-0.0589776 3.60792 -0.0589776 6.9601 2.00115 9.02005C2.9991 10.0182 4.32605 10.5678 5.73737 10.5678C6.9085 10.5677 8.01834 10.1843 8.93334 9.48539L11.2396 11.7917C11.3783 11.9306 11.5605 12 11.7424 12C11.9244 12 12.1065 11.9306 12.2452 11.7917C12.523 11.514 12.523 11.0637 12.2452 10.7861ZM3.00674 8.01447C1.50114 6.50887 1.50131 4.05897 3.00674 2.5532C3.7361 1.82401 4.70592 1.42226 5.73737 1.42226C6.769 1.42226 7.73864 1.82401 8.46801 2.5532C9.19737 3.28256 9.59911 4.25238 9.59911 5.28383C9.59911 6.31546 9.19737 7.28511 8.46801 8.01447C7.73864 8.74383 6.769 9.14558 5.73737 9.14558C4.70592 9.14558 3.7361 8.74383 3.00674 8.01447Z" fill="#9F9F9F"/>
</svg>
