<svg width="24" height="20" viewBox="0 0 24 20" fill="none" xmlns="http://www.w3.org/2000/svg">
<path fill-rule="evenodd" clip-rule="evenodd" d="M20.8863 5.98787C20.8863 5.78849 20.8822 5.59073 20.8734 5.39377C21.7703 4.74559 22.5501 3.93678 23.1645 3.01576C22.3418 3.38142 21.4562 3.62762 20.527 3.73901C21.4756 3.16994 22.203 2.27072 22.5469 1.19875C21.6589 1.72424 20.6764 2.10685 19.6301 2.3135C18.7914 1.41993 17.5982 0.862152 16.2774 0.862152C13.7401 0.862152 11.6831 2.9189 11.6831 5.45431C11.6831 5.81432 11.7235 6.16546 11.8018 6.50206C7.98414 6.30994 4.59916 4.48244 2.3339 1.70325C1.93914 2.38211 1.71148 3.16994 1.71148 4.01185C1.71148 5.60526 2.52281 7.01221 3.75555 7.83474C3.00234 7.81134 2.29435 7.60389 1.67515 7.26083C1.67435 7.27939 1.67435 7.29796 1.67435 7.31894C1.67435 9.54359 3.25825 11.4001 5.35963 11.8215C4.97375 11.9264 4.56768 11.9829 4.1487 11.9829C3.85323 11.9829 3.56502 11.9539 3.28489 11.9006C3.87018 13.7249 5.56549 15.0527 7.57646 15.0907C6.00385 16.3225 4.02357 17.0562 1.87133 17.0562C1.50078 17.0562 1.13508 17.0352 0.775024 16.9924C2.80859 18.2952 5.22239 19.0556 7.81703 19.0556C16.2653 19.0556 20.8863 12.0572 20.8863 5.98787Z" fill="black"/>
</svg>
