<svg width="26" height="26" viewBox="0 0 26 26" fill="none" xmlns="http://www.w3.org/2000/svg">
<g clip-path="url(#clip0_374_129)">
<path d="M15.9017 3.47913L24.7027 18.723C25.0255 19.282 25.2111 19.9301 25.2111 20.622C25.2111 22.7231 23.5077 24.4265 21.4066 24.4265H12.6056L9.56201 13.0001L12.6056 1.57373C14.0148 1.57373 15.2442 2.34055 15.9017 3.47913Z" fill="#3B4145"/>
<path d="M9.30939 3.47913L0.508306 18.723C0.185586 19.282 0 19.9301 0 20.622C0 22.7231 1.70331 24.4265 3.80449 24.4265H12.6055V1.57373C11.1962 1.57373 9.96684 2.34055 9.30939 3.47913Z" fill="#3B4145"/>
<path d="M23.3848 19.4838L14.5838 4.24004C14.1871 3.55269 13.4587 3.11899 12.6709 3.09668L20.1982 22.9047H21.4065C22.665 22.9047 23.6892 21.8807 23.6892 20.6221C23.6892 20.2223 23.5836 19.8287 23.3848 19.4838Z" fill="#FFB751"/>
<path d="M21.9043 19.4838C22.0762 19.8288 22.167 20.2224 22.167 20.6221C22.167 21.8807 21.2839 22.9048 20.1978 22.9048H3.80416C2.54563 22.9048 1.52148 21.8807 1.52148 20.6221C1.52148 20.2224 1.62701 19.8288 1.82584 19.4838L10.6268 4.2401C11.0347 3.53399 11.7925 3.09521 12.6051 3.09521C12.627 3.09521 12.6488 3.09571 12.6706 3.09674C13.3467 3.12313 13.9712 3.55581 14.3116 4.2401L21.9043 19.4838Z" fill="#FFD764"/>
<path d="M12.6055 17.8319V20.3682C13.306 20.3682 13.8736 19.8006 13.8736 19.1C13.8736 18.3995 13.306 17.8319 12.6055 17.8319Z" fill="#3B4145"/>
<path d="M12.6056 17.8319C12.7456 17.8319 12.8592 18.3995 12.8592 19.1001C12.8592 19.8006 12.7456 20.3683 12.6056 20.3683C11.905 20.3683 11.3374 19.8006 11.3374 19.1001C11.3374 18.3995 11.905 17.8319 12.6056 17.8319Z" fill="#3B4145"/>
<path d="M12.6055 6.92603V16.3104C13.306 16.3104 13.8736 15.7423 13.8736 15.0422V8.1942C13.8736 7.49367 13.306 6.92603 12.6055 6.92603Z" fill="#3B4145"/>
<path d="M12.6056 6.92603C12.7456 6.92603 12.8592 7.49367 12.8592 8.1942V15.0422C12.8592 15.7422 12.7456 16.3104 12.6056 16.3104C11.905 16.3104 11.3374 15.7423 11.3374 15.0422V8.1942C11.3374 7.49367 11.905 6.92603 12.6056 6.92603Z" fill="#3B4145"/>
</g>
<defs>
<clipPath id="clip0_374_129">
<rect width="25.2109" height="25.2109" fill="white" transform="translate(0 0.394531)"/>
</clipPath>
</defs>
</svg>
